<?xml version="1.0" encoding="UTF-8" standalone="no"?>
<!-- Created with Inkscape (http://www.inkscape.org/) -->

<svg
   width="63.487442mm"
   height="63.471611mm"
   viewBox="0 0 63.487442 63.471611"
   version="1.1"
   id="svg1"
   xml:space="preserve"
   xmlns="http://www.w3.org/2000/svg"
   xmlns:svg="http://www.w3.org/2000/svg"><defs
     id="defs1" /><g
     id="layer1"
     transform="translate(-77.690145,-123.74726)"><path
       style="fill:#185daa;fill-opacity:1"
       d="m 84.56304,186.86323 c -0.65485,-0.18173 -1.5904,-0.53796 -2.07902,-0.79162 -1.14269,-0.59321 -3.03939,-2.49072 -3.62921,-3.63079 -1.15881,-2.23982 -1.16466,-2.37531 -1.16466,-26.94984 0,-24.57453 0.006,-24.71002 1.16466,-26.94984 0.59051,-1.14139 2.48783,-3.03871 3.62921,-3.62922 2.23983,-1.1588 2.37532,-1.16466 26.94985,-1.16466 24.57453,0 24.71002,0.006 26.94984,1.16466 1.14139,0.59051 3.03871,2.48783 3.62922,3.62922 1.1588,2.23982 1.16466,2.37531 1.16466,26.94984 0,24.57453 -0.006,24.71002 -1.16466,26.94984 -0.59051,1.14139 -2.48783,3.03871 -3.62922,3.62922 -2.24443,1.16119 -2.35098,1.16569 -27.08213,1.14414 -17.96188,-0.0156 -23.83036,-0.0989 -24.73854,-0.35095 z m 45.51758,-7.55795 c 1.06114,-0.2948 2.73126,-1.88305 3.15,-2.99559 0.18815,-0.49991 0.27875,-7.06837 0.27553,-19.97604 l -0.005,-19.23121 -1.66301,3.175 c -0.91465,1.74625 -2.65492,5.08 -3.86728,7.40833 -10.78431,20.71133 -11.40797,21.86738 -11.73759,21.75751 -0.15776,-0.0526 -1.62754,-3.12407 -3.26619,-6.82552 -1.63865,-3.70145 -3.11357,-6.7299 -3.27761,-6.7299 -0.16403,0 -2.35028,3.81 -4.85832,8.46666 -6.67056,12.3852 -6.68121,12.4043 -6.96719,12.49963 -0.14458,0.0482 -0.47358,-0.23394 -0.7311,-0.62697 -0.87207,-1.33095 -4.94165,-6.4487 -5.12793,-6.4487 -0.10178,0 -1.01422,1.19703 -2.02764,2.66008 -1.01342,1.46304 -2.40568,3.45066 -3.09391,4.41694 -2.10577,2.95649 -3.98767,2.71281 20.93765,2.71109 13.14019,-9.1e-4 21.68305,-0.1012 22.25939,-0.26131 z M 89.81344,162.94806 c 1.35976,-1.77332 2.57876,-3.15841 2.70889,-3.07799 0.13013,0.0804 1.14881,1.33069 2.26374,2.77836 1.11492,1.44768 2.06258,2.63213 2.1059,2.63213 0.12022,0 1.99448,-3.48331 7.62873,-14.178 2.82997,-5.37173 5.28748,-9.76679 5.46112,-9.76679 0.29248,0 1.2584,1.93711 4.98564,9.99851 0.7879,1.7041 1.52279,3.09837 1.63308,3.09837 0.1103,0 0.88165,-1.27993 1.71412,-2.84427 0.83247,-1.56435 2.1956,-4.09443 3.02918,-5.6224 3.18519,-5.83854 7.6692,-14.25939 7.6692,-14.40255 0,-0.27163 -39.23817,-0.16116 -40.22593,0.11325 -1.06114,0.2948 -2.73126,1.88305 -3.14999,2.99559 -0.18655,0.49564 -0.28033,6.32444 -0.28033,17.42292 v 16.67809 l 0.99218,-1.3005 c 0.54571,-0.71528 2.10472,-2.7514 3.46447,-4.52472 z"
       id="path1" /></g></svg>
