<?xml version="1.0" encoding="UTF-8" standalone="no"?>
<!-- Created with Inkscape (http://www.inkscape.org/) -->

<svg
   width="119.87992mm"
   height="261.17001mm"
   viewBox="0 0 119.87992 261.17001"
   version="1.1"
   id="svg1"
   xml:space="preserve"
   xmlns="http://www.w3.org/2000/svg"
   xmlns:svg="http://www.w3.org/2000/svg"><defs
     id="defs1" /><g
     id="layer1"
     transform="translate(-51.43376,-19.80075)"><path
       style="fill:#000000;stroke-width:0.648313"
       d="m 88.638266,280.61781 c -2.54578,-1.4608 -3.15826,-1.54779 -6.12209,-0.86952 -2.09806,0.48014 -3.34624,0.55779 -3.61454,0.22486 -0.095,-0.11792 -0.22573,-1.44945 -0.29043,-2.95894 -0.0647,-1.50948 -0.20887,-4.79005 -0.32039,-7.29014 -0.16638,-3.73003 -0.21585,-6.62988 -0.13006,-7.62398 0.0195,-0.22624 1.10298,0.84677 1.91192,1.89348 1.05739,1.36819 0.87414,1.84201 -0.80122,2.07164 -0.7255,0.0995 -0.77322,0.13271 -0.48873,0.34073 0.1734,0.1268 0.47558,0.23054 0.6715,0.23054 0.47319,0 1.63659,0.80185 1.63659,1.12798 0,0.7964 1.50685,2.77541 3.08759,4.05509 3.9463,3.19467 7.76704,5.6235 8.84621,5.6235 0.23663,0 0.73201,-0.15396 1.10085,-0.34212 0.96227,-0.49092 1.54565,-0.25435 1.54565,0.62678 0,0.83311 -0.61995,2.09399 -1.14782,2.33451 -0.39628,0.18056 -0.81149,0.11748 -2.12037,-0.32211 -0.1465,-0.0492 -0.68265,0.19068 -1.19144,0.53308 -1.23573,0.83158 -1.63207,0.88466 -2.57322,0.34462 z m 2.11778,-0.84895 c 1.10531,-0.78585 1.58863,-0.87248 2.5235,-0.4523 0.73389,0.32985 0.77347,0.33108 1.07302,0.0336 0.39095,-0.38819 0.82346,-1.60219 0.63882,-1.79313 -0.0762,-0.0788 -0.39826,-0.008 -0.71571,0.15636 -0.93937,0.48759 -1.78205,0.38264 -3.39206,-0.42244 -1.55864,-0.7794 -1.69185,-0.86515 -4.13222,-2.6597 -3.73253,-2.74477 -5.8065,-4.81992 -6.08515,-6.08859 -0.13339,-0.6073 -0.55215,-1.00829 -1.26712,-1.21334 l -0.53823,-0.15436 -10e-4,0.80281 c -0.001,0.97323 0.31858,8.13847 0.45116,10.10846 l 0.0952,1.41515 h 0.68313 c 0.37572,0 1.54593,-0.19985 2.60047,-0.4441 2.56985,-0.59522 3.31889,-0.52546 5.23586,0.4877 0.81643,0.43149 1.60045,0.79118 1.74227,0.79929 0.14181,0.008 0.63143,-0.25084 1.08803,-0.57547 z m -10.73814,-14.57529 c 0.0469,-0.0469 -0.23281,-0.48484 -0.62162,-0.97317 l -0.70692,-0.88786 v 1.07405 1.07404 l 0.62161,-0.10087 c 0.3419,-0.0555 0.66001,-0.13926 0.70693,-0.18619 z m 17.12096,14.44124 c -0.36902,-0.52686 -0.34145,-1.2822 0.0546,-1.49413 0.17687,-0.0947 0.65931,-0.21876 1.07208,-0.27579 0.41277,-0.057 1.03581,-0.22371 1.38452,-0.37042 0.905294,-0.38087 1.167074,-0.2212 1.167074,0.71182 0,0.67321 -0.0534,0.78743 -0.41024,0.87698 -0.22564,0.0567 -0.558714,0.0778 -0.740154,0.0471 -0.18145,-0.0307 -0.58169,0.15597 -0.88942,0.4149 -0.67767,0.57023 -1.27873,0.60308 -1.63842,0.0896 z m 1.19704,-0.58193 c 0.75454,-0.4944 0.42139,-0.76726 -0.50619,-0.4146 -0.2919,0.11098 -0.40328,0.2532 -0.33588,0.42884 0.12833,0.33442 0.31476,0.33127 0.84207,-0.0143 z m 1.966594,-0.83255 c 0,-0.15346 -0.10057,-0.21333 -0.2573,-0.15318 -0.141514,0.0543 -0.257294,0.16766 -0.257294,0.25191 0,0.0842 0.11578,0.15319 0.257294,0.15319 0.14152,0 0.2573,-0.11337 0.2573,-0.25192 z m -22.249804,-19.154 c -0.30299,-0.18934 -1.19068,-0.44842 -1.97263,-0.57573 -0.78195,-0.12731 -1.9991,-0.3921 -2.70478,-0.58842 -1.56184,-0.4345 -3.42036,-0.46023 -7.29359,-0.10098 -1.50949,0.14002 -3.19357,0.25548 -3.74242,0.2566 l -0.99789,0.002 0.0545,-0.67229 c 0.0526,-0.65026 0.0151,-0.70269 -1.14627,-1.59978 -1.3071,-1.00966 -1.32667,-1.06226 -1.03696,-2.78815 0.0868,-0.51712 0.0314,-0.84679 -0.22481,-1.33837 -0.28021,-0.53759 -0.32385,-0.86925 -0.24823,-1.88686 0.16388,-2.20524 -0.40338,-3.26798 -1.24688,-2.33593 -0.23108,0.25533 -0.45376,0.33053 -0.78352,0.26458 -0.29647,-0.0593 -0.53801,0.001 -0.67758,0.16919 -0.72382,0.87215 -1.94171,0.84059 -2.13812,-0.0554 -0.21841,-0.99632 -0.42951,-1.47501 -0.99256,-2.25075 -0.77667,-1.07006 -0.95219,-1.42886 -1.24055,-2.53593 -0.32319,-1.24081 -0.30969,-1.49703 0.0983,-1.86629 0.40363,-0.36528 0.42827,-0.73059 0.0803,-1.19063 -0.13852,-0.18314 -0.25185,-0.61406 -0.25185,-0.95761 0,-0.52136 0.11223,-0.71482 0.67877,-1.17011 0.50414,-0.40514 0.70451,-0.71039 0.77884,-1.18655 0.23874,-1.52925 0.421,-1.87222 1.55768,-2.93109 l 1.12913,-1.05185 -0.12184,-1.1377 -0.12183,-1.13771 0.62262,-0.5704 c 0.80921,-0.74133 0.79718,-1.14366 -0.0821,-2.74582 -0.5183,-0.94437 -0.67947,-1.40742 -0.60914,-1.75014 0.62469,-3.0443 0.6481,-3.09762 1.78855,-4.07381 0.83318,-0.71316 0.97523,-1.18931 0.63906,-2.1421 -0.3418,-0.96876 -0.32963,-1.95181 0.0278,-2.24826 0.36773,-0.30497 0.74533,-1.21497 0.74533,-1.79623 0,-0.25127 -0.23658,-1.14587 -0.52572,-1.988 l -0.52572,-1.53114 0.35418,-0.60031 c 0.44066,-0.74685 0.44067,-0.95306 1.2e-4,-2.11218 -0.41301,-1.08667 -0.33946,-1.59364 0.33777,-2.328 1.28835,-1.39702 1.52854,-2.54518 0.70477,-3.36894 -0.46653,-0.46652 -0.58121,-0.50193 -1.2843,-0.39649 -1.1174,0.16756 -1.58517,0.005 -1.71762,-0.59843 -0.24132,-1.09874 0.81716,-1.80808 2.50593,-1.67934 0.95882,0.0731 1.04253,0.0484 1.44196,-0.42636 1.2799,-1.52107 0.26109,-2.58469 -1.88971,-1.97285 -0.92631,0.26351 -0.97904,0.26102 -1.30174,-0.0616 -0.30494,-0.30494 -0.32565,-0.4882 -0.22191,-1.96395 0.0949,-1.3504 0.0685,-1.67854 -0.15493,-1.92651 -0.48532,-0.53854 -0.52212,-1.12674 -0.10377,-1.65859 0.37126,-0.47198 0.37321,-0.49452 0.0627,-0.72159 -0.1763,-0.12892 -0.41607,-0.23439 -0.53282,-0.23439 -0.11674,0 -0.33617,-0.12392 -0.48763,-0.27538 -0.31288,-0.31288 -0.22185,-0.78467 0.27389,-1.41946 0.37197,-0.47633 0.72659,-1.66588 0.57144,-1.91691 -0.066,-0.10671 -0.32355,-0.0394 -0.67117,0.17549 -1.19375,0.73778 -2.31245,0.14935 -2.33885,-1.23022 -0.008,-0.40525 -0.0504,-0.95934 -0.0947,-1.23131 -0.0528,-0.3243 0.0782,-0.80842 0.38084,-1.40648 0.44733,-0.88413 0.45284,-0.93004 0.18045,-1.50404 -0.45936,-0.96804 -0.36542,-1.28476 0.66386,-2.23811 1.14119,-1.05701 1.17726,-1.36616 0.30682,-2.62999 -0.72456,-1.05204 -0.87095,-1.81358 -0.8941,-4.65121 -0.009,-1.06311 -0.12258,-2.14656 -0.28409,-2.70214 -0.28985,-0.99705 -0.28505,-1.01842 0.54345,-2.42106 0.3072,-0.52009 0.3096,-0.58298 0.0425,-1.11496 -0.47976,-0.95536 -0.48071,-1.10878 -0.0124,-2.01766 0.31172,-0.60496 0.40246,-0.95125 0.28949,-1.10474 -0.74272,-1.00906 -0.79191,-1.13056 -0.67439,-1.66562 0.0665,-0.30261 0.46888,-0.92229 0.89425,-1.37704 0.85489,-0.91395 0.82098,-0.65568 0.46,-3.50261 -0.1376,-1.08524 0.23194,-1.87902 1.39164,-2.98918 0.44349,-0.42455 1.02809,-1.07199 1.29912,-1.43876 l 0.49277,-0.66686 -0.7515,-0.7054 c -0.74435,-0.69868 -0.75264,-0.71931 -0.87039,-2.16344 -0.0906,-1.11102 -0.23746,-1.69016 -0.61717,-2.43339 -0.39375,-0.77073 -0.49419,-1.18462 -0.47867,-1.97263 0.0108,-0.5485 -0.11468,-1.69197 -0.27887,-2.54106 -0.16418,-0.84908 -0.30613,-2.20327 -0.31545,-3.00929 -0.0205,-1.77053 0.2699,-2.39511 1.47182,-3.16589 0.44135,-0.28303 0.88709,-0.71592 0.99055,-0.96198 0.10345,-0.24606 0.49202,-0.74416 0.86349,-1.10689 l 0.6754,-0.65951 -0.003,-2.58107 c -10e-4,-1.41958 -0.0593,-2.66677 -0.12865,-2.77154 -0.0693,-0.10477 -0.36754,-0.31419 -0.66272,-0.46537 -0.54769,-0.28053 -0.82869,-0.70729 -0.65295,-0.99164 0.0539,-0.0872 0.40906,-0.31722 0.7893,-0.51121 0.575,-0.29334 0.67257,-0.4156 0.57979,-0.72655 -0.45298,-1.51817 -0.31089,-2.35581 0.48287,-2.84638 0.54062,-0.33413 0.58289,-0.42855 0.66832,-1.49282 0.0641,-0.7988 0.19871,-1.27007 0.45329,-1.58723 0.92069,-1.14701 0.96242,-1.25843 0.90502,-2.41686 -0.099,-1.99877 -0.0851,-3.15931 0.0507,-4.22388 0.15742,-1.23393 -0.0527,-1.78663 -0.67921,-1.78663 -0.62958,0 -1.24824,-0.34226 -1.35552,-0.74993 -0.0528,-0.20077 -0.007,-0.85249 0.10293,-1.44827 0.19777,-1.07655 0.19611,-1.08556 -0.26922,-1.45803 -0.37366,-0.2991 -0.498,-0.58648 -0.61566,-1.42292 -0.17786,-1.26445 -0.40526,-1.66233 -1.1542,-2.01947 -0.67989,-0.32422 -0.72989,-0.73317 -0.23172,-1.89537 0.40106,-0.93561 0.26355,-1.41431 -0.54315,-1.89084 -0.68498,-0.404631 -1.19802,-1.598471 -1.30011,-3.025361 -0.0796,-1.11224 -0.068,-1.15121 0.54037,-1.82465 l 0.62169,-0.68813 v -1.70138 c 0,-2.87515 0.64088,-4.5998 1.89588,-5.10195 0.84633,-0.33864 0.984,-0.64788 0.53981,-1.21258 -0.24462,-0.31099 -0.37724,-0.83621 -0.46689,-1.84902 -0.0689,-0.77806 -0.35102,-2.0999 -0.627,-2.93741 -0.62825,-1.90648 -0.56042,-2.34817 0.50613,-3.29581 l 0.78984,-0.70177 0.10696,-1.69969 c 0.1052,-1.67175 0.36194,-2.50376 0.91397,-2.96191 0.13787,-0.11442 0.29848,-0.46288 0.35691,-0.77437 0.0584,-0.31149 0.36424,-0.86837 0.67957,-1.2375 0.31532,-0.36914 0.73596,-0.99071 0.93473,-1.38128 0.53711,-1.0553 1.67709,-3.97109 2.0069,-5.13314 0.42928,-1.51254 0.65225,-1.78996 1.43866,-1.78996 0.51732,0 0.724,-0.0939 0.94343,-0.42883 0.23773,-0.36283 0.41306,-0.42883 1.1391,-0.42883 h 0.85811 l -0.28085,-0.55748 c -0.15447,-0.30662 -0.73537,-1.29882 -1.2909,-2.2049 -1.15752,-1.88794 -1.21395,-2.25258 -0.58122,-3.75587 0.54129,-1.28605 0.54095,-2.02007 -0.001,-3.09041 -1.09999,-2.17073 -1.1513,-3.93184 -0.15267,-5.24011 0.32061,-0.42003 0.58294,-0.82323 0.58294,-0.89599 0,-0.0728 -0.26417,-0.38147 -0.58704,-0.68601 -0.83435,-0.78699 -0.92012,-1.38675 -0.36157,-2.52839 0.68991,-1.41014 2.01648,-2.48726 4.66836,-3.79055 2.89665,-1.42359 3.47042,-1.97031 3.97739,-3.78989 0.37169,-1.33403 1.225,-5.05025 1.21982,-5.31242 -10e-4,-0.0764 -0.23012,-0.3968 -0.50802,-0.71206 -0.96,-1.08902 -0.89102,-1.30424 1.19582,-3.731 0.755,-0.87799 1.02036,-1.32074 1.02458,-1.70955 0.009,-0.81158 0.32757,-1.09211 1.44776,-1.27409 1.17683,-0.19119 1.76108,-0.64447 1.91957,-1.48926 0.14799,-0.78887 0.68728,-1.4291 1.20378,-1.4291 0.26615,0 0.73337,0.28963 1.25632,0.77879 1.01258,0.94715 1.35731,1.05436 3.51984,1.09467 0.93283,0.0174 2.34465,0.14472 3.13738,0.28296 2.94241,0.51312 4.18101,1.41275 4.58829,3.33263 0.22584,1.0646 0.98789,2.20895 1.48244,2.22611 0.0604,0.002 0.13862,-0.56506 0.17373,-1.26035 0.0552,-1.09342 0.17239,-1.48151 0.86749,-2.87318 0.44201,-0.88495 1.00376,-1.82128 1.24835,-2.08072 l 0.4447,-0.47171 2.952004,-0.0423 c 4.369,-0.0627 5.04973,-0.0382 5.32626,0.1913 0.13822,0.11471 0.45071,0.61612 0.69442,1.11423 0.31566,0.64518 0.72132,1.11179 1.41042,1.62233 0.53203,0.39417 1.03103,0.71667 1.10889,0.71667 0.0779,0 0.42987,0.52103 0.78223,1.15784 0.99113,1.79126 1.65308,2.72265 2.94224,4.13993 1.00065,1.10008 1.45184,1.44091 2.85878,2.15952 1.70018,0.86838 2.14423,1.26561 3.01503,2.6972 0.56715,0.9324 1.98553,1.84865 2.86572,1.8512 0.30561,9e-4 0.96172,0.16258 1.45803,0.35933 0.49631,0.19675 1.42242,0.46286 2.05803,0.59136 1.82136,0.36823 2.42558,0.73432 5.61991,3.40498 2.5209,2.10765 3.19418,2.58198 4.20255,2.96071 0.6604,0.24804 1.46748,0.64947 1.79349,0.89206 0.39275,0.29226 0.92207,0.47992 1.56867,0.55616 1.98006,0.23347 3.84009,1.45301 4.55385,2.98576 0.57435,1.23335 0.53779,2.01632 -0.11757,2.51831 -1.78832,1.36979 -1.7466,1.3089 -1.62354,2.36926 0.12945,1.11524 0.021,1.2677 -1.02891,1.44717 -1.54049,0.26331 -1.64206,0.40883 -1.80873,2.59121 -0.153,2.00354 -0.52264,2.73375 -1.95276,3.85764 -1.21722,0.95657 -1.6306,1.69888 -1.19093,2.13854 0.19534,0.19534 0.66169,0.25977 1.88029,0.25977 1.68168,0 1.84042,0.0401 5.13052,1.29626 1.4484,0.553 3.70681,0.8358 4.47475,0.56033 0.89706,-0.32178 1.76847,-0.0415 2.53975,0.8168 0.879,0.97821 1.19443,0.97059 1.6413,-0.0396 0.53441,-1.20812 1.21822,-1.56083 1.98491,-1.02382 0.18662,0.13071 0.63868,0.32032 1.00458,0.42135 0.99666,0.27519 1.54102,-0.0701 1.91241,-1.21321 0.34377,-1.05807 0.84745,-1.67573 1.36649,-1.67573 0.50051,0 1.74357,-0.64683 2.82108,-1.46795 0.91458,-0.69696 2.0619,-2.30843 3.07312,-4.31639 0.48703,-0.96708 0.53905,-1.22454 0.55454,-2.74453 0.0274,-2.68662 0.25246,-3.01483 1.50083,-2.1887 0.55355,0.36632 0.74995,0.41736 1.02979,0.26759 1.35467,-0.725 3.45594,0.95722 3.45594,2.76673 0,0.31205 0.19297,0.92987 0.42883,1.37292 0.30447,0.57195 0.42779,1.069 0.42523,1.71397 -0.006,1.61478 -1.40843,5.80813 -2.19503,6.56515 -1.76196,1.69568 -2.07482,1.97679 -2.20304,1.97944 -0.0792,0.002 -0.87609,0.0801 -1.77092,0.1743 l -1.62697,0.17133 -0.86026,0.84521 c -0.47314,0.46487 -1.2408,1.00717 -1.70592,1.20511 -1.71362,0.72926 -3.67645,2.06099 -4.59612,3.11836 -0.51232,0.58903 -1.22153,1.18834 -1.63781,1.38401 -0.5095,0.2395 -1.46315,1.13926 -3.11603,2.93998 -1.31001,1.42717 -2.77578,2.9724 -3.25728,3.43384 -0.48149,0.46144 -1.01889,1.16326 -1.1942,1.5596 -0.37335,0.844 -1.11504,1.42112 -2.32407,1.80837 -0.83321,0.26689 -0.89347,0.3295 -1.49376,1.552 -0.47188,0.961 -0.94523,1.58005 -1.92719,2.52038 -0.71593,0.68557 -1.35367,1.45364 -1.41722,1.70682 -0.0635,0.25318 -0.026,0.89372 0.0834,1.42343 0.16722,0.8096 0.15351,1.1117 -0.086,1.89538 -0.1567,0.51274 -0.26995,1.16383 -0.25166,1.44686 0.0227,0.35169 -0.15865,0.7821 -0.57293,1.35958 -0.52681,0.73434 -0.60618,0.97501 -0.60618,1.83825 0,0.9341 -0.046,1.04505 -0.7719,1.8624 -0.86719,0.97641 -0.93011,1.329191 -0.4326,2.425601 0.47257,1.04146 0.43019,1.85718 -0.16976,3.26704 l -0.5166,1.21399 0.43083,0.77084 c 0.55739,0.99728 0.55058,1.48851 -0.0261,1.87747 -1.84585,1.24515 -2.11612,1.9839 -2.11612,5.78412 0,1.79382 -0.0724,2.65986 -0.26813,3.2078 -0.22259,0.6231 -0.23505,0.92134 -0.0734,1.75603 0.33142,1.71097 0.37066,1.75184 2.86908,2.98791 2.47631,1.22513 4.02568,2.34974 4.54197,3.29678 0.53801,0.98689 0.35988,2.32903 -0.4688,3.53223 -0.51539,0.74833 -0.66235,1.1194 -0.64232,1.62184 0.0277,0.69459 0.67213,2.11249 1.38559,3.04866 0.41109,0.53941 0.47606,0.56374 1.22892,0.46019 0.64418,-0.0886 0.87438,-0.0449 1.21408,0.23041 0.40074,0.32478 0.41889,0.42529 0.41268,2.28433 -0.01,2.97003 -0.49522,3.91564 -3.85299,7.5078 -0.89626,0.95882 -1.76911,2.06769 -1.93969,2.46414 -0.38443,0.89356 -1.12216,1.68015 -2.34863,2.5042 -1.99892,1.34308 -4.67052,2.2593 -10.31036,3.53594 -1.54654,0.35009 -3.32303,0.78268 -3.94773,0.96132 -1.89403,0.54163 -3.79384,0.71132 -7.1241,0.63632 l -3.14701,-0.0709 v 0.47127 c 0,0.54425 -0.32741,1.34507 -0.54992,1.34507 -0.0835,0 -0.33739,0.1856 -0.56423,0.41243 -0.38125,0.38126 -0.40477,0.50382 -0.31107,1.6214 0.12254,1.46171 -0.10201,2.11027 -0.90179,2.60456 -0.62632,0.38709 -0.83554,0.82494 -0.78548,1.64395 0.0429,0.70259 -0.2361,1.41349 -0.77764,1.98123 l -0.43767,0.45882 0.8836,0.44775 c 0.87647,0.44414 1.55542,1.25117 1.55671,1.85035 10e-4,0.7283 -2.32667,2.53061 -3.26903,2.53061 -0.15745,0 -0.49229,0.16206 -0.74411,0.36014 -0.63853,0.50227 -1.96534,0.82827 -3.87754,0.95271 l -1.63036,0.1061 -1.277134,-0.64314 c -0.70241,-0.35373 -1.66692,-0.75776 -2.14335,-0.89785 -0.47643,-0.14008 -1.30088,-0.51728 -1.83211,-0.83823 -0.53123,-0.32094 -1.13963,-0.58353 -1.35201,-0.58353 -0.37762,0 -1.54161,1.05185 -1.54161,1.3931 0,0.0924 0.23726,1.05697 0.52725,2.14358 0.56642,2.12243 0.63442,2.89782 0.42117,4.80259 -0.12509,1.11729 -0.10567,1.25166 0.22936,1.58668 0.29322,0.29322 0.57298,0.36602 1.40649,0.36602 1.70762,0 2.07245,0.39354 1.25997,1.35911 l -0.44408,0.52776 0.74426,-0.0203 c 0.40935,-0.0111 0.97223,-0.0692 1.25087,-0.12895 l 0.5066,-0.10865 -0.46372,-0.30383 c -0.74081,-0.4854 -0.6028,-0.9331 0.43683,-1.41711 1.428584,-0.66511 2.794604,-0.50763 3.193644,0.36815 0.30804,0.67608 0.75238,3.63998 0.63749,4.25235 -0.1894,1.0096 -0.59951,1.21343 -2.44615,1.21577 -1.505314,0.002 -1.653074,-0.0285 -1.956894,-0.40289 -0.18075,-0.22273 -0.32864,-0.65113 -0.32864,-0.95201 0,-0.30088 -0.0926,-0.63968 -0.20584,-0.75289 -0.45913,-0.45914 -2.6966,-0.0266 -3.29757,0.63744 -0.35808,0.39567 -0.21071,0.52156 1.33262,1.1384 1.33801,0.53478 2.17079,1.15999 2.17079,1.62972 0,0.40271 -0.34182,0.58533 -1.56749,0.83742 -1.09537,0.2253 -1.33725,0.44489 -1.76396,1.60149 -0.1661,0.45021 -0.49733,0.95194 -0.73606,1.11496 -1.38736,0.94737 -1.54522,1.52632 -0.81117,2.9749 l 0.43883,0.866 -0.35284,0.67694 c -0.28559,0.54793 -0.32417,0.80455 -0.20241,1.34646 0.16201,0.72108 0.0336,1.74831 -0.29496,2.35903 -0.11227,0.20871 -0.55714,0.62235 -0.98858,0.9192 -0.64799,0.44582 -0.76328,0.60362 -0.66272,0.90701 0.067,0.20202 0.15821,0.68876 0.20278,1.08166 0.11499,1.0139 -0.21229,1.15417 -2.33801,1.00202 l -1.65959,-0.11878 -0.40646,0.79028 c -0.51248,0.99642 -0.63857,1.09667 -1.60679,1.27755 -1.02344,0.1912 -1.55563,0.55121 -2.10774,1.42582 -1.08522,1.7191 -2.22689,5.20357 -2.07527,6.33393 0.21546,1.60636 1.97153,4.02679 3.88662,5.35701 0.74718,0.51898 0.85599,0.54298 2.49656,0.55068 1.56071,0.007 1.78849,0.0512 2.52708,0.48624 1.45351,0.85624 2.06977,1.96675 1.39994,2.52267 -0.20287,0.16836 -0.25369,0.42255 -0.19269,0.96369 0.0583,0.51685 -0.0163,0.93547 -0.25128,1.41035Ŕ-ĘÝćU  Ŕ-ĘÝćU                  pŤÄÝćU          p*ÄÝćU  (.ĘÝćU          ŕ-ĘÝćU   @      ŕ-ĘÝćU          5422,0.25041 -1.12537,1.15 -2.15812,1.99909 -3.01249,2.47675 -5.71322,5.12588 -6.154,6.03643 -0.30905,0.63841 -0.43094,1.33975 -0.59396,3.41742 -0.28104,3.58193 -0.66257,4.33065 -2.92647,5.74296 -3.35924,2.09563 -4.01115,2.98389 -4.01115,5.46537 0,1.1474 0.1315,1.94868 0.6008,3.66085 0.69972,2.55278 1.03414,3.26077 2.77449,5.87388 0.73967,1.11061 1.26181,2.06775 1.22716,2.2495 -0.0827,0.43374 -0.63319,0.4492 -1.29386,0.0364 z m -0.64805,-2.17459 c -1.39791,-2.02935 -2.04278,-3.45883 -2.73175,-6.05551 -0.95403,-3.59562 -0.79644,-5.67048 0.54555,-7.18271 0.35508,-0.40012 1.52939,-1.31695 2.60958,-2.03741 2.79293,-1.8628 3.02343,-2.28912 3.24916,-6.00927 0.15023,-2.4757 0.40642,-3.23448 1.53037,-4.53252 0.93877,-1.0842 3.24843,-3.21892 5.62239,-5.19658 1.04906,-0.87393 1.95414,-1.71081 2.01129,-1.85975 0.0572,-0.14893 -0.0266,-0.54442 -0.18605,-0.87886 -0.27961,-0.58634 -0.27645,-0.63375 0.0883,-1.32635 0.28599,-0.54297 0.35188,-0.87792 0.26998,-1.37241 -0.0858,-0.51785 -0.0294,-0.76094 0.27071,-1.16682 l 0.37904,-0.51268 -0.63741,-0.58384 c -1.06036,-0.97126 -1.62482,-1.15807 -3.08563,-1.02118 -1.16298,0.10898 -1.35615,0.0797 -2.20107,-0.33369 -0.99444,-0.48653 -2.87613,-2.23411 -3.67235,-3.41061 -0.74123,-1.09524 -1.10678,-2.16124 -1.11335,-3.24665 l -0.006,-0.98069 -0.95772,0.0758 c -0.52675,0.0417 -1.62265,0.11598 -2.43534,0.16513 -0.81269,0.0491 -3.35995,0.20663 -5.66058,0.34996 -2.30064,0.14334 -5.45661,0.33642 -7.01327,0.42907 -5.17669,0.30813 -5.28228,0.32444 -5.67533,0.87642 l -0.34677,0.48699 0.43806,1.2144 c 0.63573,1.7624 0.60771,3.10894 -0.0865,4.15703 -0.51442,0.77664 -0.51973,0.80624 -0.27464,1.53031 0.55207,1.63104 0.45705,2.04652 -0.75734,3.31117 -0.9059,0.94341 -1.06195,1.20464 -1.19512,2.00067 -0.0842,0.50356 -0.20264,1.16364 -0.2631,1.46681 -0.0868,0.43515 -1.4e-4,0.72967 0.41131,1.39836 1.05734,1.71838 1.08656,2.83132 0.0948,3.61141 -0.36543,0.28744 -0.39989,0.43469 -0.36273,1.54988 l 0.041,1.23227 -1.16161,1.06017 c -1.09151,0.9962 -1.17269,1.12208 -1.34536,2.08592 -0.20946,1.16923 -0.53565,1.88902 -0.96835,2.13679 -0.80545,0.46122 -0.79821,0.43331 -0.37622,1.45144 l 0.39875,0.96205 -0.39683,0.53673 c -0.37747,0.51056 -0.38601,0.58371 -0.17503,1.50031 0.26874,1.16754 0.38503,1.40964 1.20449,2.50738 0.35213,0.47171 0.74562,1.23746 0.87442,1.70166 0.1288,0.46419 0.32256,0.87345 0.43058,0.90946 0.10803,0.036 0.47404,-0.17828 0.81337,-0.47622 0.34215,-0.30041 0.72711,-0.49942 0.86427,-0.44679 0.13602,0.0522 0.54435,-0.0678 0.90738,-0.26664 1.41685,-0.77609 1.98795,0.0408 2.02176,2.89166 0.0138,1.15735 0.0943,1.6842 0.30747,2.00947 0.3516,0.53661 0.36292,1.01002 0.0491,2.05271 l -0.23974,0.79663 1.05452,0.75409 c 1.44043,1.03003 1.72071,1.36687 1.58553,1.90548 -0.10608,0.42265 -0.0868,0.43509 0.53715,0.34624 1.24582,-0.1774 6.93954,-0.59928 8.08792,-0.59928 0.63751,0 1.73281,0.15774 2.43401,0.35055 0.70119,0.1928 1.77662,0.43049 2.38985,0.52821 0.61323,0.0977 1.46232,0.27506 1.88686,0.39409 0.42455,0.11902 0.79394,0.2002 0.82087,0.18041 0.0269,-0.0198 -0.38025,-0.65907 -0.90484,-1.42063 z m -15.43974,-47.20853 c 3.5021,-0.2298 7.42289,-0.47688 10.76369,-0.67829 4.66385,-0.28117 5.66074,-0.34699 6.75682,-0.44612 l 1.05335,-0.0953 0.47126,-1.31774 c 0.61776,-1.72734 1.56734,-3.54978 2.15672,-4.13916 0.25949,-0.25949 0.84413,-0.56815 1.29921,-0.68592 0.45508,-0.11777 0.92673,-0.24384 1.0481,-0.28016 0.12138,-0.0363 0.35295,-0.31337 0.5146,-0.61567 0.16166,-0.30232 0.47009,-0.73421 0.68542,-0.95977 0.37907,-0.39708 0.44581,-0.40626 2.10128,-0.28889 l 1.70977,0.12122 v -0.43976 c 0,-0.24188 -0.0792,-0.64819 -0.17609,-0.90292 -0.22391,-0.58893 0.0904,-1.1078 1.0304,-1.70122 0.86886,-0.54849 1.17494,-1.43353 0.90451,-2.61534 -0.15698,-0.68599 -0.13718,-0.89793 0.13342,-1.42834 0.31603,-0.61949 0.31549,-0.62727 -0.10112,-1.45018 -0.69633,-1.37544 -0.47764,-2.37281 0.72072,-3.28684 0.39933,-0.30459 0.79552,-0.85626 1.09621,-1.52646 0.4061,-0.90511 0.56836,-1.0885 1.17941,-1.333 0.38969,-0.15592 0.88065,-0.28467 1.09101,-0.28612 0.21037,-10e-4 0.48485,-0.0675 0.60999,-0.14687 0.27284,-0.17297 -0.40818,-0.60718 -1.88643,-1.20277 -1.18222,-0.47631 -1.55856,-0.85806 -1.48441,-1.50574 0.12419,-1.08482 3.47166,-2.06915 4.42138,-1.30011 0.30118,0.24387 0.44287,0.56886 0.51253,1.17551 l 0.0963,0.83845 1.0292,0.0533 c 1.573024,0.0815 2.119634,-0.0681 2.258894,-0.61831 0.0646,-0.25531 -0.0121,-1.2361 -0.17057,-2.17953 -0.40166,-2.39178 -0.78028,-2.65282 -2.688694,-1.85367 l -0.60036,0.2514 0.59812,0.28709 c 1.319704,0.63343 0.55348,1.31022 -1.71016,1.51057 -1.68571,0.14921 -2.17351,-0.34226 -1.36274,-1.37299 l 0.35552,-0.45196 -0.913,-6.4e-4 c -0.94926,-6.5e-4 -1.94454,-0.44005 -2.13784,-0.94377 -0.078,-0.20315 -0.44526,-0.25632 -1.77073,-0.25632 -1.57381,0 -11.11762,0.39207 -14.50078,0.59571 -0.84909,0.0511 -2.99844,0.1703 -4.77634,0.26485 -8.03084,0.42713 -9.80234,0.52432 -12.37695,0.67906 -1.50948,0.0907 -3.02643,0.16737 -3.37098,0.17033 -0.53676,0.005 -0.65162,0.0775 -0.80208,0.50913 -0.0979,0.28076 -0.48627,0.70935 -0.87739,0.96818 -0.83211,0.55066 -0.99811,1.03691 -0.61013,1.78719 0.32564,0.6297 0.24202,1.18564 -0.29088,1.93403 -0.3046,0.42777 -0.33818,0.64972 -0.24134,1.59498 0.0618,0.60394 0.15731,1.21482 0.21206,1.35752 0.14053,0.36618 0.87254,0.3221 1.38832,-0.0836 0.81668,-0.64239 1.41907,-0.34572 1.41907,0.69887 0,0.73485 -0.40943,1.9882 -0.78508,2.40329 -0.23827,0.26329 -0.21619,0.30468 0.24911,0.46688 0.28081,0.0979 0.64359,0.381 0.80619,0.62915 0.28394,0.43335 0.28105,0.47086 -0.0731,0.94983 -0.45201,0.61138 -0.452,0.6102 -0.009,1.17164 0.33346,0.42244 0.35099,0.58676 0.23907,2.23945 -0.11276,1.66505 -0.10054,1.77579 0.18392,1.66663 1.22696,-0.47083 2.58247,-0.49227 3.17728,-0.0502 0.3411,0.25347 0.67127,0.86196 0.67127,1.23713 0,0.4159 -0.48399,1.36922 -0.95094,1.87306 -0.364,0.39277 -0.53392,0.43695 -1.68063,0.43695 -0.98419,0 -1.36495,0.0723 -1.66635,0.31634 -0.48202,0.39031 -0.35363,0.96834 0.17762,0.79973 0.5603,-0.17783 1.64143,-0.14037 2.0355,0.0705 0.47645,0.25498 1.0556,1.39509 1.0556,2.07802 0,0.65184 -0.74263,1.9961 -1.40157,2.53704 -0.26692,0.21911 -0.48576,0.56647 -0.48632,0.7719 -10e-4,0.49692 0.72696,2.16892 0.94446,2.16815 0.0943,-3.3e-4 1.32938,-0.0766 2.74452,-0.16944 z m -2.14416,-31.21303 c 1.55666,-0.0926 3.525,-0.20928 4.37409,-0.2593 1.56714,-0.0923 5.52498,-0.29755 11.57846,-0.60037 1.8397,-0.092 4.0782,-0.20928 4.97446,-0.26055 2.29566,-0.13133 9.99969,-0.42136 11.24738,-0.42344 l 1.04117,-0.002 0.21103,-1.32939 c 0.22703,-1.43018 0.16286,-2.0091 -0.47975,-4.32775 -0.19558,-0.70568 -0.3556,-1.54999 -0.3556,-1.87625 0,-0.83614 0.62449,-1.67332 1.49903,-2.00958 l 0.72713,-0.27957 1.58856,0.79648 c 0.87371,0.43807 1.67817,0.79558 1.7877,0.79448 0.10952,-0.001 0.92153,0.34725 1.80448,0.77412 l 1.605364,0.77613 1.88902,-0.2482 c 1.79651,-0.23604 2.82135,-0.52541 2.82135,-0.79663 0,-0.16475 -1.05792,-1.19355 -1.22732,-1.19355 -0.0732,0 -0.40502,-0.23884 -0.73749,-0.53075 -1.00036,-0.87832 -1.12278,-1.60683 -1.12278,-6.68146 v -4.40542 l -0.81478,-0.2999 c -0.44813,-0.16495 -1.81091,-0.84596 -3.028394,-1.51336 -1.21749,-0.66739 -2.56831,-1.30419 -3.00183,-1.4151 -0.43352,-0.11092 -1.90746,-0.25674 -3.27544,-0.32407 -1.36798,-0.0673 -3.72226,-0.23137 -5.23175,-0.36456 -1.50949,-0.13319 -2.82992,-0.24312 -2.93428,-0.24429 -0.10436,-0.001 -0.55927,-0.28427 -1.01091,-0.62912 -0.45164,-0.34486 -1.26343,-0.84124 -1.80397,-1.10309 -0.96898,-0.46938 -1.71252,-1.18053 -1.71252,-1.63793 0,-0.30421 -0.27387,-0.29537 -1.26012,0.0407 -1.12395,0.38297 -1.58538,0.22262 -2.03753,-0.70804 -0.29837,-0.61414 -0.46129,-0.76754 -0.81515,-0.76754 -0.53313,0 -1.20472,-0.43786 -1.20472,-0.78546 0,-0.13827 0.30876,-0.58636 0.68613,-0.99577 0.37737,-0.40939 0.68613,-0.86643 0.68613,-1.01563 0,-0.44719 -0.7035,-0.80533 -1.58196,-0.80533 h -0.8195 l 0.006,1.07209 c 0.003,0.58964 0.11184,2.65446 0.24093,4.5885 0.28674,4.29597 0.1784,5.24388 -0.68105,5.95878 -0.31321,0.26054 -0.88173,0.68359 -1.26338,0.94012 -0.46825,0.31475 -0.86168,0.79881 -1.20986,1.48855 -0.55972,1.10879 -1.05273,1.56146 -1.70065,1.56146 -0.26734,0 -0.60423,0.22501 -0.94815,0.63329 -0.98279,1.16671 -1.68203,1.77941 -2.50895,2.19844 -1.30156,0.65955 -1.5619,1.10924 -1.5047,2.59903 0.0438,1.14078 0.01,1.29057 -0.38002,1.67744 -0.43595,0.43257 -2.05504,0.95384 -2.96267,0.95384 -0.70882,0 -1.12083,0.27609 -1.39647,0.93581 -0.13337,0.3192 -0.40341,0.66648 -0.60009,0.77174 -0.39193,0.20977 -0.45992,0.74547 -0.18602,1.46587 0.39294,1.03352 -0.44362,1.45796 -2.87355,1.45796 h -1.62161 l 0.0606,2.10128 c 0.0571,1.98357 0.0893,2.14797 0.57512,2.93475 0.28303,0.45842 0.5908,0.97945 0.68393,1.15785 0.19979,0.38275 0.30263,0.38653 4.20475,0.15443 z m -1.84941,-7.23286 c 0.23602,-0.12083 0.26165,-0.23793 0.12865,-0.58776 -0.29572,-0.7778 -0.1979,-1.41855 0.27949,-1.83083 0.24507,-0.21165 0.59064,-0.66769 0.76792,-1.01345 0.35884,-0.6998 0.82323,-0.90897 2.43642,-1.09742 0.56685,-0.0662 1.22777,-0.27522 1.5438,-0.48822 0.5398,-0.36381 0.55262,-0.40213 0.55262,-1.65208 0,-1.59144 0.31752,-2.10461 1.78674,-2.88769 0.62094,-0.33096 1.29056,-0.87107 1.68104,-1.35591 1.01719,-1.26299 1.22415,-1.4122 2.28127,-1.64465 0.32373,-0.0712 0.56985,-0.37536 0.98509,-1.21743 0.40251,-0.81624 0.74806,-1.25104 1.2664,-1.59349 0.39206,-0.25904 0.98228,-0.72486 1.31159,-1.03517 l 0.59875,-0.5642 -0.11199,-3.20952 c -0.0616,-1.76524 -0.15889,-4.1076 -0.21622,-5.20524 l -0.10425,-1.99572 -0.69158,-0.0928 c -0.44391,-0.0595 -0.84175,-0.25472 -1.11093,-0.54502 -0.50409,-0.54363 -1.07861,-0.78505 -1.56533,-0.65777 -0.67195,0.17572 -1.2313,-0.0969 -1.49534,-0.72885 -0.32896,-0.78731 -0.76503,-0.93124 -2.82136,-0.93124 -1.97918,0 -2.10133,-0.0906 -2.31293,-1.71533 -0.13547,-1.04019 -0.28118,-1.21499 -3.05437,-3.66388 -1.31538,-1.16157 -1.33699,-1.17256 -1.68518,-0.85766 -0.194,0.17544 -0.49876,0.60512 -0.67725,0.95483 -0.19567,0.38338 -0.62705,0.81315 -1.08645,1.08237 -1.37188,0.80398 -1.57156,2.1816 -0.85725,5.91447 0.13545,0.70786 0.24629,1.72302 0.24631,2.25592 2e-5,0.74476 0.11907,1.1952 0.51463,1.94716 0.43117,0.81968 0.5146,1.17511 0.5146,2.19247 0,1.21124 0.002,1.21592 0.74547,1.91233 0.41001,0.38397 0.78524,0.81391 0.83385,0.95542 0.15353,0.44697 -0.5366,1.54183 -1.76966,2.80742 -0.65567,0.67298 -1.24116,1.41466 -1.30109,1.64818 -0.0599,0.23352 -0.0191,0.94896 0.0909,1.58986 0.34597,2.01755 0.30481,2.21683 -0.65784,3.18456 -0.97021,0.97532 -1.06658,1.42936 -0.42883,2.02041 0.54732,0.50724 0.54062,0.93628 -0.0305,1.95225 l -0.45933,0.81711 0.37356,0.63312 c 0.49861,0.84507 0.47227,1.20154 -0.16178,2.18962 -0.53398,0.83214 -0.53471,0.8365 -0.28699,1.73035 l 0.24834,0.8961 0.93024,0.0959 c 1.0612,0.10938 2.33519,0.0134 2.76878,-0.20854 z m 49.688244,-2.62522 c 0.82111,-0.28971 1.84107,-1.02341 2.10295,-1.51274 0.27025,-0.50497 -0.0972,-1.04369 -1.0748,-1.57576 -1.21645,-0.66208 -1.28998,-0.90682 -0.57471,-1.91286 0.45756,-0.64357 0.59459,-1.00704 0.59459,-1.57715 0,-0.9364 0.20377,-1.33947 1.05914,-2.09509 0.73607,-0.65022 0.72493,-0.59569 0.59456,-2.91151 -0.0408,-0.72433 -0.0713,-0.76859 -0.49568,-0.71803 -0.50465,0.0601 -0.44971,0.23073 -0.83926,-2.60652 -0.19578,-1.42594 -0.18862,-1.53848 0.11188,-1.75821 0.46188,-0.33773 0.69786,-0.29446 1.29266,0.23699 0.45768,0.40894 0.54924,0.641 0.68757,1.74265 0.0878,0.69898 0.20003,1.31134 0.24948,1.36078 0.20228,0.20229 0.50321,-0.3672 0.59097,-1.1184 l 0.0936,-0.80079 4.37409,-0.0135 4.37408,-0.0135 2.74453,-0.70836 c 1.50949,-0.38959 3.94097,-0.99846 5.40329,-1.35303 5.94932,-1.44254 8.78892,-2.92074 9.8285,-5.11636 0.27789,-0.58691 1.08842,-1.61801 2.19616,-2.79383 2.99702,-3.18117 3.63086,-4.45236 3.54866,-7.11696 l -0.0496,-1.60796 h -1.00486 c -0.94544,0 -1.0374,-0.0375 -1.55476,-0.6349 -0.77113,-0.89034 -1.51286,-2.4766 -1.60664,-3.43594 -0.0703,-0.71909 0.001,-0.94538 0.62832,-1.98294 1.01181,-1.67462 0.97567,-2.74099 -0.1278,-3.77011 -0.8258,-0.77016 -1.92522,-1.44303 -3.86213,-2.36371 -1.05514,-0.50155 -2.05133,-1.05875 -2.21376,-1.23824 -0.16244,-0.17949 -0.45544,-0.95947 -0.65113,-1.73331 -0.33437,-1.32226 -0.33946,-1.45487 -0.0846,-2.20282 0.14914,-0.43772 0.27117,-0.97508 0.27117,-1.19413 0,-0.33594 -0.0883,-0.39827 -0.56409,-0.39827 -0.583,0 -0.74552,-0.0719 -3.23663,-1.43269 -0.99575,-0.54392 -1.83617,-0.86774 -2.55082,-0.98283 -1.49795,-0.24124 -2.16031,-0.64344 -3.34006,-2.02817 -0.56606,-0.66441 -1.10814,-1.21002 -1.20461,-1.21246 -0.0965,-0.003 -0.31853,0.26132 -0.49346,0.58614 -0.17493,0.32482 -0.57655,0.8728 -0.89249,1.21773 l -0.57445,0.62715 -0.78032,-0.43613 -0.78032,-0.43613 -1.24046,1.49121 c -0.68225,0.82017 -1.93468,2.36834 -2.78316,3.44039 l -1.5427,1.94918 -5.27464,-0.0983 -5.27464,-0.0983 v 1.96568 c 0,1.40637 0.0582,1.96568 0.20433,1.96568 0.11237,0 0.0614,0.10451 -0.11329,0.23224 -0.32844,0.24015 -0.33358,4.36988 -0.0478,38.36265 0.0486,5.78348 0.0659,5.86211 1.44227,6.57388 0.28892,0.1494 0.74828,0.53978 1.02081,0.86752 0.27253,0.32773 0.5437,0.60145 0.6026,0.60827 0.0589,0.007 0.42677,-0.10041 0.81751,-0.23828 z m -4.72704,-29.41482 -0.11389,-16.34368 -4.817394,0.12193 c -2.64955,0.0671 -4.86882,0.17217 -4.93171,0.23359 -0.0629,0.0614 -0.1401,1.80984 -0.17159,3.88539 -0.0315,2.07554 -0.11322,3.85976 -0.18162,3.96492 -0.083,0.12759 -1.68092,0.2329 -4.80287,0.31652 -2.57316,0.0689 -4.70421,0.19514 -4.73566,0.28051 -0.0797,0.21633 -0.71472,0.19532 -0.71472,-0.0237 0,-0.19436 -9.25093,-0.0409 -9.46494,0.15698 -0.064,0.0592 -0.053,0.68656 0.0244,1.39414 0.0774,0.70757 0.28033,3.23554 0.45088,5.6177 l 0.31007,4.3312 h 0.8122 c 0.98335,0 1.54162,0.19578 2.0188,0.70797 0.53689,0.57629 0.4574,1.24112 -0.24083,2.01397 -0.7173,0.79396 -0.73301,0.88025 -0.16026,0.88025 0.66407,0 1.06351,0.28426 1.18654,0.84438 0.18723,0.85243 0.48444,0.97106 1.57309,0.6279 1.23979,-0.39081 1.69174,-0.27084 1.95214,0.51821 0.16707,0.50621 0.36397,0.68924 1.08542,1.00895 0.48472,0.21481 1.29835,0.70439 1.80806,1.08795 0.71802,0.54032 1.12367,0.71695 1.8011,0.78422 2.44864,0.24315 5.21523,0.44776 7.16553,0.52992 3.42144,0.14414 4.14489,0.35321 7.17415,2.07325 1.074374,0.61004 2.956624,1.45883 3.044414,1.37286 0.0234,-0.023 -0.009,-7.39635 -0.0713,-16.38537 z m 7.76945,16.15726 c -0.0479,-0.1651 -0.13954,-0.76332 -0.2036,-1.32938 -0.10997,-0.97194 -0.43696,-1.62956 -0.81026,-1.62956 -0.15719,0 -0.12698,0.48479 0.1577,2.53011 0.088,0.63204 0.15745,0.72901 0.52238,0.72901 0.31971,0 0.39996,-0.0722 0.33378,-0.30018 z M 72.950276,141.20308 c -0.0674,-1.06136 -0.26445,-3.74133 -0.43777,-5.95551 -0.17333,-2.21417 -0.27789,-4.08602 -0.23237,-4.15967 0.0455,-0.0736 1.71849,-0.13437 3.71771,-0.13493 1.99921,-5.7e-4 4.27319,-0.0507 5.05327,-0.11144 1.29218,-0.10059 1.4271,-0.14541 1.5171,-0.50401 0.0543,-0.21648 0.1108,-1.9996 0.12548,-3.96247 0.031,-4.14706 -0.11878,-4.85614 -1.26158,-5.97206 -0.85514,-0.83502 -0.97919,-1.44703 -0.60381,-2.97883 0.2823,-1.15197 0.2807,-1.20001 -0.0625,-1.87268 -0.1937,-0.37971 -0.67575,-1.06405 -1.0712,-1.52076 -0.99883,-1.15355 -1.29932,-1.93641 -1.50406,-3.91851 -0.16821,-1.62856 -0.69834,-3.68549 -1.63491,-6.34365 l -0.42217,-1.1982 -1.43649,-0.28274 c -0.79007,-0.1555 -1.67777,-0.4075 -1.97267,-0.56001 -0.62604,-0.32373 -1.44877,-0.35824 -1.97964,-0.083 -0.20607,0.10683 -0.8882,0.68575 -1.51585,1.2865 -0.65208,0.62414 -1.29365,1.09227 -1.49695,1.09227 -0.43943,0 -0.79953,-0.53016 -1.1409,-1.67967 -0.24706,-0.83196 -0.74859,-1.40793 -1.22598,-1.40793 -0.11633,0 -0.49588,0.19297 -0.84343,0.42884 -0.40249,0.27313 -0.87091,0.42883 -1.29016,0.42883 -0.7108,0 -1.04918,0.33135 -1.27463,1.24813 -0.15191,0.61774 -0.62635,0.85818 -1.64793,0.83516 -0.45399,-0.0102 -1.01223,0.0524 -1.24055,0.13924 -0.40047,0.15225 -0.40689,0.18091 -0.18194,0.81162 0.12825,0.35959 0.23657,0.93807 0.24072,1.28549 0.005,0.45959 0.0939,0.65911 0.32456,0.73231 0.55989,0.17771 0.74249,0.86769 0.53397,2.01764 -0.22922,1.264 -0.14755,1.50705 0.50631,1.50705 0.71401,0 1.37612,0.62953 1.50355,1.42959 0.0576,0.36174 0.003,1.19901 -0.1222,1.86062 -0.18307,0.9702 -0.18637,1.44457 -0.0171,2.45202 0.26335,1.56729 0.0432,2.60621 -0.70789,3.34055 -0.44992,0.43988 -0.53388,0.67079 -0.63163,1.7372 -0.10784,1.17658 -0.14392,1.25685 -0.8323,1.85185 l -0.71958,0.62197 0.25951,1.09371 c 0.28941,1.21978 0.22789,1.39202 -0.66155,1.85196 l -0.5111,0.2643 0.60729,0.34706 c 0.57748,0.33003 0.61293,0.40433 0.7222Ŕ-ĘÝćU  Ŕ-ĘÝćU                  pŤÄÝćU          p*ÄÝćU  (.ĘÝćU          ŕ-ĘÝćU   @      ŕ-ĘÝćU          796 1.335,1.20339 1.82692,1.61206 1.15984,0.96355 1.42398,1.38912 1.65397,2.66481 l 0.18967,1.052 1.87872,0.0889 c 2.05807,0.0974 2.426,0.23924 2.89919,1.1179 0.2765,0.51343 0.37642,0.56107 1.32003,0.62932 0.86745,0.0628 1.10294,0.1559 1.56682,0.61979 0.31,0.30999 0.72371,0.54594 0.95726,0.54594 h 0.41132 z m 19.10464,-10.70142 c 0.0395,-0.0346 0.10668,-1.66439 0.14938,-3.62186 0.0643,-2.94735 0.0298,-3.71914 -0.20041,-4.4907 -0.22123,-0.74133 -0.27926,-1.75765 -0.28401,-4.97445 -0.004,-2.75412 -0.085,-4.48019 -0.25393,-5.41504 -0.13637,-0.75474 -0.24946,-1.73205 -0.25131,-2.17179 -0.003,-0.68216 0.0731,-0.86392 0.51786,-1.23812 0.49867,-0.41961 0.51573,-0.47781 0.39419,-1.34464 -0.15445,-1.10152 -0.12511,-1.29819 0.27763,-1.86135 0.30511,-0.42664 0.42446,-1.17774 0.37471,-2.35825 -0.0205,-0.48646 -0.0737,-0.55325 -0.36674,-0.46025 -1.16012,0.36821 -1.88716,-0.0122 -1.88716,-0.9874 0,-0.60032 -0.27824,-1.1557 -0.75135,-1.49973 -0.53509,-0.389101 -1.82531,-0.875651 -2.01354,-0.759311 -0.0914,0.0565 -0.2593,0.0266 -0.3731,-0.0665 -0.41101,-0.33605 -2.71674,-0.41441 -3.89486,-0.13236 -0.61322,0.14681 -1.39987,0.26807 -1.74808,0.26946 -0.34822,0.001 -0.68096,0.0799 -0.73943,0.17454 -0.0668,0.10814 -0.21558,0.11351 -0.40067,0.0144 -0.16433,-0.0879 -1.01021,-0.10709 -1.9148,-0.0434 -1.50085,0.10577 -1.63672,0.14584 -1.84117,0.543031 -0.1214,0.23585 -0.20063,0.69794 -0.17607,1.02685 0.0381,0.50963 0.1076,0.59837 0.47044,0.60036 0.26763,10e-4 0.44751,0.11385 0.48429,0.30253 0.0393,0.2014 -0.0491,0.30019 -0.26852,0.30019 -0.17988,0 -0.3694,0.0423 -0.42115,0.0941 -0.0517,0.0517 0.25213,1.15127 0.67527,2.44337 0.86013,2.62644 1.2411,4.24114 1.24553,5.27903 0.005,1.1567 0.45862,2.32838 1.29062,3.33314 0.42967,0.51889 0.9811,1.34912 1.22542,1.84496 0.44343,0.89995 0.44372,0.90346 0.1663,2.00788 -0.3828,1.52395 -0.3593,1.71606 0.2998,2.4505 1.41829,1.58044 1.73874,2.99321 1.59008,7.01006 -0.0598,1.61461 -0.15786,3.18168 -0.218,3.48238 l -0.10934,0.54673 4.44018,-0.11783 c 2.4421,-0.0648 4.47247,-0.1461 4.51194,-0.18066 z m 10.863464,-8.40971 c 0.0707,-0.0428 0.12865,-1.07683 0.12865,-2.29772 v -2.2198 h 1.77197 1.77197 l 0.63499,-1.24362 c 0.34924,-0.68398 1.0997,-1.86113 1.66768,-2.61587 1.83413,-2.43719 3.28201,-4.56856 3.87052,-5.69763 0.9592,-1.84027 0.71467,-3.54165 -0.82059,-5.7093 -0.99112,-1.39939 -1.22118,-2.11162 -1.21259,-3.753961 0.006,-1.0696 0.12128,-1.61704 0.63858,-3.02159 1.40165,-3.80576 1.62188,-4.4814 1.62408,-4.9825 0.001,-0.33331 -0.27581,-0.94606 -0.7654,-1.69148 -0.42224,-0.64286 -0.81957,-1.44536 -0.88298,-1.78333 -0.10156,-0.54138 0.11666,-3.0023 0.38866,-4.38292 l 0.0965,-0.48987 -4.01413,0.061 -4.01413,0.061 -0.56227,-0.47171 c -0.47167,-0.39572 -0.72251,-0.47172 -1.55685,-0.47172 -1.4652,0 -1.951354,-0.1421 -2.688864,-0.78593 -0.36537,-0.31897 -0.9157,-0.62866 -1.22294,-0.68821 -1.08615,-0.2105 -4.15853,0.4655 -4.15853,0.91498 0,0.18231 -0.11636,0.22408 -0.41524,0.14907 -0.46093,-0.11568 -0.49795,-0.0219 -0.70305,1.78236 -0.1595,1.40298 -0.18624,1.45025 -1.20228,2.12486 -0.6138,0.40754 -0.93856,0.74126 -0.93856,0.96448 0,0.2174 -0.11489,0.34132 -0.31648,0.34132 -0.94445,0 -1.73022,2.10124 -2.34129,6.26094 -0.30526,2.0779 -0.32123,3.32647 -0.0626,4.89258 l 0.19569,1.18494 1.06337,0.35387 c 1.46702,0.48819 2.31898,1.437841 2.31898,2.584901 v 0.54798 l 0.81478,-0.10534 c 0.44813,-0.058 0.90644,-0.047 1.01846,0.0242 0.70006,0.44547 0.66193,2.76105 -0.0632,3.83771 -0.37597,0.55825 -0.40241,0.70023 -0.23962,1.2865 0.28676,1.03271 0.22368,1.3937 -0.3297,1.88676 -0.6065,0.54039 -0.64572,1.00276 -0.25727,3.03277 0.18395,0.96126 0.25794,2.52576 0.25962,5.48905 0.001,2.27952 0.0514,4.32804 0.11146,4.55227 l 0.10911,0.40769 5.07741,-0.12548 c 2.792584,-0.069 5.135304,-0.16054 5.206064,-0.2034 z m 12.91142,-6.69889 c 2.45278,-3.09497 3.69503,-4.50841 3.96234,-4.50841 0.11937,0 0.5038,0.1692 0.85431,0.376 l 0.63727,0.376 0.44461,-0.53532 c 0.24453,-0.29442 0.58644,-0.80094 0.75979,-1.12558 l 0.31517,-0.59027 -1.10096,-1.37482 c -0.60553,-0.75614 -1.19933,-1.63458 -1.31956,-1.95206 -0.12022,-0.31748 -0.36484,-0.9389 -0.54359,-1.38093 -0.42697,-1.05586 -0.41156,-1.30498 0.13,-2.10196 0.40896,-0.60182 0.46845,-0.89107 0.58779,-2.857881 0.073,-1.20355 0.21282,-2.33786 0.31066,-2.52066 0.10886,-0.2034 0.43932,-0.37418 0.85165,-0.44012 0.72434,-0.11582 1.23476,-0.59094 2.26608,-2.10935 0.31027,-0.45682 1.02644,-1.3709 1.5915,-2.0313 0.56505,-0.6604 1.17431,-1.53292 1.35392,-1.93893 0.17961,-0.40601 0.5103,-0.82192 0.73488,-0.92425 0.22457,-0.10232 0.45254,-0.38765 0.50661,-0.63406 0.0541,-0.24641 0.0463,-1.79884 -0.0172,-3.44984 -0.20233,-5.25966 -0.10452,-5.94178 1.02971,-7.18174 0.79983,-0.8744 1.40316,-1.81109 2.49598,-3.87511 0.65877,-1.24425 0.72924,-1.49942 0.79503,-2.87912 0.0712,-1.49368 0.36137,-2.42657 0.80021,-2.57285 0.11988,-0.04 -1.3644,-0.12487 -3.2984,-0.18868 -9.71627,-0.32061 -14.97645,-0.45982 -15.03829,-0.39798 -0.0377,0.0377 -0.33335,1.64178 -0.65703,3.56466 -0.32369,1.92288 -0.74986,4.26804 -0.94704,5.21147 -0.19719,0.94343 -0.46849,2.48723 -0.60289,3.43066 -0.13441,0.94343 -0.36111,2.44863 -0.5038,3.34489 -0.41339,2.59672 -0.38227,2.82515 0.59582,4.37409 0.55411,0.8775 0.85767,1.547 0.85767,1.89159 0,0.69764 -0.37924,1.96032 -1.29165,4.30063 -1.40837,3.6124 -1.39208,5.08695 0.0795,7.200051 0.99,1.42155 1.55523,2.9581 1.55503,4.22732 -2.2e-4,1.47455 -0.83734,2.98098 -4.03033,7.25267 -1.38895,1.8582 -2.48777,3.62057 -2.48777,3.99008 0,0.27396 0.45436,0.31918 3.61056,0.35929 l 2.83866,0.0361 z m 18.97618,-5.63202 c 0.34298,-0.86523 0.54182,-1.10911 1.30655,-1.60243 l 0.90201,-0.58188 -0.43084,-0.73516 c -0.54684,-0.93312 -0.54373,-1.57766 0.013,-2.6762 0.51016,-1.00675 0.50665,-1.93746 -0.0122,-3.2429 -0.39122,-0.984251 -0.28562,-1.426161 0.59559,-2.492551 0.59232,-0.71678 0.68818,-0.94765 0.68818,-1.65754 0,-0.84228 0.43208,-1.93051 0.93089,-2.34448 0.16502,-0.13696 0.26983,-0.49674 0.26983,-0.92623 0,-0.38625 0.12952,-1.04141 0.28782,-1.45592 0.24178,-0.63308 0.2555,-0.8745 0.0858,-1.50911 -0.11113,-0.4155 -0.20245,-0.92803 -0.20292,-1.13894 -4.7e-4,-0.21092 -0.28994,-0.76944 -0.64325,-1.24115 -1.37949,-1.8418 -3.90612,-2.41142 -6.16066,-1.38889 -1.16895,0.53018 -1.4778,0.57447 -2.67242,0.38329 l -0.81478,-0.13039 v 1.01411 c 0,1.28378 -0.24687,1.99561 -0.77569,2.23656 -0.22856,0.10413 -0.52165,0.44283 -0.65131,0.75265 -0.12967,0.30983 -0.77212,1.21943 -1.42767,2.02135 -0.65555,0.80192 -1.50708,1.92117 -1.89229,2.48723 -0.88073,1.29422 -1.16577,1.54347 -2.07146,1.81132 -0.40097,0.11859 -0.73485,0.22269 -0.74197,0.23134 -0.007,0.009 -0.0711,0.98981 -0.1421,2.18036 -0.11491,1.925931 -0.18146,2.253901 -0.60348,2.974021 -0.26088,0.44516 -0.4325,0.93768 -0.38138,1.09449 0.70582,2.16486 1.74681,3.84574 2.95015,4.76357 0.32517,0.24802 0.59356,0.53827 0.59642,0.645 0.003,0.10674 0.60107,0.82212 1.32938,1.58976 1.37524,1.4495 1.35731,1.43972 3.55411,1.93953 0.47171,0.10732 1.61789,0.61933 2.54707,1.1378 0.92918,0.51847 1.97123,1.00148 2.31569,1.07337 l 0.62628,0.13071 0.11061,-2.16106 c 0.0861,-1.68152 0.20036,-2.38753 0.51514,-3.18163 z m -74.738204,-6.58483 1.19045,-0.0963 0.14673,-0.60036 c 0.20921,-0.85603 0.84972,-1.37227 1.7026,-1.37227 0.49819,0 0.84488,-0.12637 1.22567,-0.44679 0.43411,-0.36528 0.65229,-0.43052 1.19592,-0.35759 0.92019,0.12342 1.26043,0.49551 1.6994,1.85847 0.20829,0.64671 0.44404,1.17585 0.52388,1.17585 0.0798,0 0.50766,-0.39353 0.95072,-0.87449 1.58933,-1.72538 2.67723,-2.03225 4.56947,-1.28893 0.57346,0.22526 1.40931,0.46157 1.85743,0.52511 l 0.81479,0.11553 v -0.70215 c 0,-0.77059 0.35352,-1.772071 0.70143,-1.987091 0.12201,-0.0754 1.02777,-0.21991 2.01279,-0.32112 l 1.79095,-0.18402 -0.62339,-0.7719 c -1.5797,-1.95602 -1.59819,-2.00472 -1.68618,-4.44166 -0.0778,-2.15532 -0.0964,-2.24435 -0.67229,-3.21869 -0.46005,-0.77839 -0.79195,-1.10983 -1.48695,-1.48484 -0.49209,-0.26554 -1.02964,-0.67841 -1.19455,-0.9175 -0.69467,-1.00714 -1.48901,-1.78113 -2.512,-2.44763 -0.73587,-0.47944 -1.26095,-0.98647 -1.62037,-1.56466 -0.29246,-0.47046 -0.63044,-0.88886 -0.75106,-0.92979 -0.12063,-0.0409 -1.1994,-0.18217 -2.39727,-0.31387 -3.10908,-0.34184 -2.9955,-0.22313 -3.1008,-3.2411 -0.12434,-3.56369 -0.44335,-4.25678 -2.48549,-5.40009 l -1.07444,-0.60154 -0.34666,0.40204 c -0.55727,0.64629 -0.70051,1.16081 -0.80436,2.88926 l -0.0979,1.62956 -0.83119,0.75662 c -0.49859,0.45386 -0.8312,0.90331 -0.8312,1.12321 0,0.20161 0.23004,1.01898 0.51122,1.81637 0.3636,1.03119 0.51218,1.7726 0.5146,2.56781 0.003,0.90641 0.0845,1.23747 0.43221,1.74911 0.59705,0.87863 0.56416,1.44879 -0.10469,1.81512 -1.40325,0.76854 -1.59277,0.96659 -1.92361,2.01015 -0.24018,0.75764 -0.32438,1.5271 -0.3214,2.93718 l 0.004,1.91061 -0.58539,0.56739 c -0.52301,0.50692 -0.58538,0.6655 -0.58538,1.48824 0,1.07887 0.56906,2.55376 1.04342,2.70431 0.88252,0.28011 1.29294,1.717881 0.75767,2.654251 -0.13483,0.23586 -0.24788,0.55212 -0.25122,0.7028 -0.009,0.39596 0.68051,0.67209 1.10888,0.44421 0.18869,-0.10037 0.87877,-0.22584 1.53352,-0.27881 z m 23.85334,-4.801911 c 0.47171,-0.0879 1.38437,-0.11478 2.02812,-0.0598 l 1.17046,0.0999 -0.0912,-0.58328 c -0.24832,-1.58875 -0.27693,-2.63123 -0.1182,-4.30653 0.33217,-3.50565 1.15655,-6.59647 2.01133,-7.541 0.24407,-0.26969 0.22094,-0.38837 -0.26531,-1.36143 -0.29297,-0.5863 -0.53268,-1.24194 -0.53268,-1.457 0,-0.21505 -0.30192,-0.73984 -0.67094,-1.16621 -0.65259,-0.754 -0.74146,-0.97874 -0.95783,-2.42233 -0.22052,-1.47122 -1.24496,-2.61759 -2.68592,-3.0056 -0.41572,-0.11195 -0.76471,-0.35031 -0.94126,-0.64289 -0.15432,-0.25574 -0.60833,-0.96671 -1.0089,-1.57994 -0.40057,-0.61323 -0.82797,-1.39896 -0.94976,-1.74607 -0.13294,-0.37887 -0.36367,-0.6693 -0.57732,-0.72667 -0.50136,-0.13463 -4.11749,-0.10361 -6.35953,0.0546 -2.71999,0.19189 -3.01017,0.0772 -3.2112,-1.26978 -0.0434,-0.2905 -0.21779,-0.35633 -1.13858,-0.42967 -0.95082,-0.0757 -1.13901,-0.15114 -1.49857,-0.60037 -0.22615,-0.28256 -0.45985,-0.77078 -0.51932,-1.08493 -0.0594,-0.31414 -0.19487,-0.60444 -0.30089,-0.64509 -0.17224,-0.066 -3.8884,0.54991 -3.96843,0.65778 -0.0179,0.0241 -0.31641,0.64054 -0.66333,1.36979 -0.34691,0.72924 -0.7724,1.4017 -0.94552,1.49436 -0.28705,0.15362 -0.84061,1.17102 -0.68509,1.25915 0.0363,0.0206 0.52465,0.26895 1.08527,0.55198 2.28903,1.15563 2.87731,2.33009 2.97842,5.94621 0.0767,2.74178 -0.23814,2.44428 2.87529,2.71722 1.19259,0.10455 2.18838,0.28009 2.40904,0.42467 0.20687,0.13555 0.55733,0.57213 0.77879,0.97018 0.27297,0.49062 0.81702,1.00838 1.68915,1.60752 0.72403,0.49739 1.59557,1.28786 1.99342,1.80797 0.411,0.5373 1.12352,1.17773 1.70218,1.52993 0.83985,0.5112 1.08842,0.78514 1.59186,1.7544 0.56771,1.09299 0.60065,1.25357 0.68007,3.31529 l 0.0835,2.16668 0.79111,1.03543 c 0.43511,0.56948 0.94549,1.30392 1.13417,1.63208 0.34051,0.59221 0.3501,0.5959 1.2865,0.49497 0.51889,-0.0559 1.32938,-0.17358 1.8011,-0.26144 z m 58.912414,-14.16301 c 0.55799,-1.21698 0.90034,-1.54601 1.771,-1.70206 0.79292,-0.14213 1.76919,-0.96906 2.11163,-1.78861 0.14032,-0.33584 1.10046,-1.45016 2.13362,-2.47626 1.03316,-1.02609 2.46904,-2.54894 3.19083,-3.38409 0.93126,-1.07752 1.59252,-1.6678 2.27717,-2.03272 0.53067,-0.28283 1.13698,-0.74707 1.34737,-1.03164 l 0.38252,-0.51739 -0.55069,-0.88588 c -0.50073,-0.80551 -0.55675,-1.03583 -0.61746,-2.53908 l -0.0668,-1.65322 -0.94893,-0.41778 -0.94893,-0.41779 -0.31897,0.39391 c -0.17542,0.21664 -0.31896,0.52255 -0.31896,0.67979 0,0.51502 -0.50913,1.04837 -1.00075,1.04837 -0.53446,0 -0.92159,-0.24133 -1.80619,-1.12593 -0.56929,-0.56929 -0.6853,-0.61558 -1.26841,-0.50605 -0.91984,0.17277 -2.90205,0.11687 -3.88862,-0.10967 -0.46494,-0.10676 -1.5842,-0.49929 -2.48722,-0.8723 -1.48886,-0.61499 -1.8337,-0.68904 -3.70027,-0.79448 -1.13211,-0.064 -2.15028,-0.17402 -2.26258,-0.24459 -0.23882,-0.15008 -0.8621,0.45149 -1.11899,1.08002 -0.22627,0.5536 -0.19773,3.33572 0.0388,3.77758 0.13801,0.25787 0.12753,0.33921 -0.0437,0.33921 -0.12387,0 -0.34637,0.13508 -0.49446,0.30018 -0.14808,0.1651 -0.41469,0.38489 -0.59245,0.48843 -0.26742,0.15575 -0.34152,0.47158 -0.42925,1.82957 -0.0851,1.31749 -0.19505,1.80494 -0.55713,2.47052 -0.2481,0.45605 -0.76916,1.45613 -1.1579,2.22241 -0.38874,0.76627 -1.11778,1.86445 -1.62008,2.44039 -1.10114,1.26258 -1.41005,2.34373 -1.18342,4.14178 0.0774,0.61372 0.14131,1.59085 0.14212,2.1714 l 0.001,1.05556 0.62767,0.18806 c 0.97506,0.29213 1.66697,0.22676 2.89011,-0.27306 0.87306,-0.35677 1.42447,-0.46301 2.43664,-0.46946 1.1645,-0.007 1.43704,0.0574 2.48069,0.58976 0.75821,0.38679 1.3563,0.84142 1.69276,1.28676 l 0.52032,0.68864 1.43277,-1.46054 c 0.99363,-1.01288 1.57741,-1.77599 1.90466,-2.48974 z m -52.054434,0.16626 c 0.52072,-0.3331 0.94863,-0.69975 0.95092,-0.81478 0.0167,-0.83701 0.23032,-2.19818 0.42644,-2.71676 0.21071,-0.55719 0.20044,-0.6901 -0.10031,-1.29798 -0.39145,-0.79118 -0.83601,-2.75821 -0.84568,-3.74185 -0.004,-0.37737 -0.16335,-1.03138 -0.35476,-1.45335 -0.32262,-0.71123 -0.32937,-0.81762 -0.0925,-1.45803 0.21866,-0.59128 0.22587,-1.01208 0.05,-2.92074 -0.20527,-2.22795 -0.20586,-2.22997 -0.66224,-2.28291 -0.34198,-0.0397 -0.59423,0.0981 -1.0037,0.54803 -0.30081,0.33057 -0.71206,0.62855 -0.9139,0.66219 -0.5221,0.087 -1.16937,-0.27644 -1.56187,-0.87701 -0.18548,-0.2838 -0.62702,-0.67886 -0.9812,-0.87792 -0.81322,-0.45706 -0.87372,-0.56178 -1.01454,-1.75605 -0.0795,-0.67393 -0.28319,-1.23459 -0.64961,-1.7878 -0.29362,-0.44328 -0.53385,-0.93649 -0.53385,-1.09603 0,-0.15954 0.23908,-0.59015 0.5313,-0.95691 1.30519,-1.63813 1.33615,-2.27843 0.1723,-3.5636 -1.17312,-1.2954 -1.34008,-2.36755 -0.47513,-3.05102 l 0.36347,-0.28721 -0.45416,-0.11399 c -0.33518,-0.0841 -0.62539,0.002 -1.10769,0.33009 -0.47127,0.32024 -0.87575,0.44408 -1.45037,0.44408 -0.93114,0 -1.09928,-0.15915 -1.26859,-1.20073 -0.0937,-0.57638 -0.31585,-0.97641 -0.87706,-1.57933 -0.41338,-0.44409 -0.75159,-0.95315 -0.75159,-1.13126 0,-0.45066 0.54772,-0.89972 1.22806,-1.00687 1.09231,-0.17203 1.22178,-0.3282 1.13542,-1.36961 -0.11419,-1.37706 -0.49654,-1.69704 -1.98204,-1.65875 -0.63433,0.0164 -3.58482,0.055 -6.55662,0.0858 l -5.40329,0.056 -0.31091,0.60037 c -0.4325,0.83514 -0.28015,2.18779 0.41333,3.66972 0.74976,1.60221 0.80627,2.35371 0.27943,3.7162 -0.23499,0.60772 -0.47,1.23349 -0.52223,1.39058 -0.0578,0.17386 0.40406,1.11365 1.18022,2.40146 1.64301,2.72609 1.66896,3.40233 0.13054,3.40233 -0.59808,0 -0.78686,0.0812 -1.02171,0.43966 -0.22868,0.349 -0.40554,0.42955 -0.85768,0.39059 -0.31329,-0.027 -0.64249,0.026 -0.73157,0.11782 -0.0891,0.0918 -0.4676,1.07304 -0.84118,2.18055 l -0.67923,2.01365 0.45129,-0.10111 c 0.24822,-0.0556 0.72147,-0.16703 1.05168,-0.24761 0.99373,-0.24247 2.52776,-0.24171 2.82069,0.001 0.14679,0.12183 0.26718,0.38573 0.26753,0.58645 6.5e-4,0.5273 0.62875,1.47831 0.98316,1.48927 1.91277,0.0592 2.27533,0.25424 2.27533,1.22415 0,0.4529 0.18918,0.56645 0.85944,0.51583 1.36953,-0.10342 7.79572,-0.15596 8.21009,-0.0671 0.49335,0.10577 0.62738,0.24812 0.90924,0.96569 0.18183,0.4629 0.74996,1.4719 1.26252,2.24223 0.81638,1.22694 1.02266,1.42773 1.66375,1.61948 1.54695,0.4627 2.36554,1.51885 2.80287,3.61626 0.19624,0.94119 0.40129,1.40952 0.84313,1.92571 0.3211,0.37514 0.63139,0.92388 0.68953,1.21944 0.19771,1.00515 0.76116,2.16693 1.05093,2.16693 0.0307,0 0.48189,-0.27254 1.00261,-0.60564 z m 21.032064,-2.96814 c 0.12105,-0.13588 1.56508,-7.75042 1.95717,-10.32039 0.15113,-0.9906 0.30537,-1.94865 0.34275,-2.129 0.0374,-0.18036 -0.009,-0.47096 -0.10215,-0.6458 -0.12823,-0.2396 -0.10495,-0.34289 0.0946,-0.41945 0.23351,-0.0896 0.2647,-1.07668 0.2647,-8.37862 0,-4.55238 -0.0499,-8.64108 -0.11089,-9.086 l -0.11087,-0.80894 -6.70755,0.10092 c -3.68916,0.0555 -7.552344,0.1193 -8.584864,0.14175 l -1.87731,0.0408 -0.60207,1.45803 c -0.53743,1.30147 -0.61274,1.67906 -0.70143,3.51643 -0.10448,2.16462 -0.22691,2.56311 -1.04786,3.41063 -0.36733,0.37922 -0.50271,0.7193 -0.58043,1.45803 -0.16355,1.55464 -0.42331,2.28706 -1.10216,3.10762 -0.35123,0.42454 -0.71082,0.88768 -0.79911,1.02919 -0.13666,0.21908 -0.23917,1.61955 -0.25482,3.48134 -0.002,0.26373 -0.11699,0.52286 -0.25504,0.57583 -0.30669,0.11769 -0.32324,0.93112 -0.0606,2.979 0.16517,1.28793 0.15323,1.55645 -0.0902,2.02713 -0.2534,0.49002 -0.25524,0.59149 -0.0191,1.04822 0.14383,0.27812 0.37232,1.34915 0.50777,2.38007 0.22983,1.74926 0.5553,2.89374 0.96243,3.3843 0.13264,0.15982 0.45399,0.12877 1.41147,-0.1364 0.71197,-0.19718 1.83418,-0.3527 2.6361,-0.36532 1.31518,-0.0207 1.43485,0.009 2.05839,0.50355 1.026514,0.81487 1.088884,0.83762 2.576454,0.94004 1.13054,0.0778 1.50449,0.17714 1.94393,0.51614 l 0.54412,0.41976 3.80241,-0.0574 c 2.09134,-0.0316 3.8482,-0.10874 3.90414,-0.17154 z m 46.10962,-11.61965 c 0.69348,-0.43156 1.80704,-1.05046 2.47457,-1.37533 0.66753,-0.32486 1.25599,-0.64718 1.30769,-0.71625 0.0517,-0.0691 0.44909,-0.44458 0.8831,-0.83447 0.75181,-0.67537 0.85723,-0.71489 2.22993,-0.83591 1.73401,-0.15288 2.1129,-0.28289 2.63594,-0.90449 0.22065,-0.26222 0.59571,-0.58088 0.83348,-0.70813 0.54943,-0.29404 1.32157,-1.99767 2.01236,-4.44001 0.55718,-1.96994 0.55629,-2.54779 -0.005,-3.51426 -0.17662,-0.3039 -0.37405,-0.93849 -0.43873,-1.41021 -0.13025,-0.94991 -0.36066,-1.39513 -1.06521,-2.0583 -0.43148,-0.40613 -0.55852,-0.43585 -1.4399,-0.33685 -0.71674,0.0805 -1.1026,0.0383 -1.4924,-0.16328 -0.28915,-0.14952 -0.56815,-0.27186 -0.62001,-0.27186 -0.0519,0 -0.0977,0.7526 -0.10181,1.67245 -0.005,0.94652 -0.10771,1.95322 -0.23834,2.31933 -0.27629,0.77437 -1.98113,3.66507 -2.58426,4.38186 -0.63406,0.75354 -2.66705,2.0849 -3.69569,2.42024 -0.8348,0.27214 -0.92276,0.35412 -1.22239,1.13928 -0.52893,1.38605 -0.68588,1.60621 -1.30449,1.8299 l -0.59045,0.21351 0.0679,1.55185 c 0.0543,1.24053 0.14684,1.67962 0.46148,2.18873 0.21649,0.35027 0.4472,0.63687 0.5127,0.63687 0.0655,0 0.68649,-0.3531 1.37997,-0.78467 z m -23.99784,-2.99589 c 0,-1.83158 0.24183,-2.62619 1.01094,-3.32176 0.22705,-0.20534 0.36133,-0.5351 0.36133,-0.88739 0,-0.67191 0.52069,-1.33956 1.74645,-2.23935 l 0.87335,-0.64109 -0.49513,-0.40892 c -1.90198,-1.57084 -4.793,-3.2336 -6.45466,-3.71239 -0.86913,-0.25043 -1.02733,-0.36663 -1.3439,-0.98717 -0.19735,-0.38683 -1.34195,-1.71842 -2.54355,-2.95909 -1.31163,-1.35426 -2.44322,-2.69951 -2.83151,-3.36614 -0.77138,-1.32428 -0.94361,-1.47962 -3.70288,-3.33963 -1.17929,-0.79495 -2.56871,-1.79539 -3.08759,-2.22318 -2.23918,-1.8461 -3.44131,-2.68666 -4.92064,-3.44063 -0.86665,-0.44171 -1.65813,-0.75219 -1.75884,-0.68995 -0.10071,0.0622 -0.13619,0.30004 -0.0789,0.52845 0.15353,0.61174 -0.16265,1.34174 -1.01911,2.35296 -0.41863,0.49428 -1.62394,1.94074 -2.67849,3.21438 -1.05454,1.27363 -2.20166,2.65433 -2.54914,3.06822 -0.34748,0.4139 -0.69351,0.85774 -0.76896,0.98632 -0.11465,0.19539 0.78921,0.23378 5.5045,0.23378 h 5.64167 l 0.1132,4.14456 c 0.0622,2.27951 0.1132,6.51296 0.1132,9.40767 v 5.2631 l 2.44435,0.10889 c 1.34439,0.0599 5.49334,0.19544 9.21989,0.30121 3.72655,0.10578 6.80771,0.22315 6.84702,0.26082 0.27011,0.25886 0.35736,-0.14487 0.35736,-1.65367 z m -45.016424,0.75534 c 0.55076,-0.58397 0.63711,-0.61707 1.35385,-0.51883 0.75881,0.10401 0.76703,0.0996 0.93121,-0.49498 0.0911,-0.32995 0.12668,-1.00346 0.0791,-1.49669 -0.0919,-0.95222 0.0837,-1.32703 1.38186,-2.9487 0.41815,-0.52236 0.51936,-0.84714 0.63245,-2.0295 0.074,-0.77419 0.1395,-1.42864 0.14544,-1.45433 0.006,-0.0257 0.32835,-0.39123 0.71647,-0.8123 0.64347,-0.69808 0.71373,-0.86579 0.79694,-1.90233 l 0.0912,-1.13676 -0.75405,0.14306 c -1.10859,0.21033 -1.76827,0.16462 -2.52072,-0.17469 -0.536,-0.2417 -0.79693,-0.26786 -1.29641,-0.12994 -0.57858,0.15975 -0.67782,0.12883 -1.32673,-0.41332 -0.95064,-0.79424 -1.11544,-0.74903 -3.45481,0.94765 -0.18835,0.1366 -0.66168,0.29098 -1.05184,0.34306 -0.61097,0.0816 -0.71668,0.1578 -0.76204,0.54967 -0.0393,0.34022 0.14733,0.68016 0.74025,1.34775 1.48007,1.66649 1.49354,2.65938 0.0608,4.4829 -0.56856,0.72366 -0.59494,0.87657 -0.20661,1.19793 0.45144,0.37359 0.90838,1.54262 0.91248,2.33455 0.003,0.65733 0.0681,0.76746 0.67622,1.15136 0.36986,0.23348 0.88076,0.69759 1.13533,1.03135 0.58663,0.76912 0.98193,0.76523 1.71959,-0.0169 z m 49.546864,-9.02497 c 0.0608,-0.21227 0.15965,-1.07992 0.2196,-1.92812 0.097,-1.37275 0.16004,-1.5932 0.57356,-2.00672 0.2555,-0.25551 0.68672,-0.51195 0.95825,-0.56987 0.27153,-0.0579 0.67172,-0.14163 0.8893,-0.18601 0.36208,-0.0739 0.38616,-0.14371 0.28409,-0.82431 -0.15079,-1.00556 0.20703,-1.64813 1.28824,-2.31341 0.75295,-0.46329 0.86188,-0.60154 0.85859,-1.08968 -0.005,-0.70167 -0.50958,-1.81409 -1.04786,-2.30894 -0.74773,-0.68738 -2.41001,-1.41878 -3.23669,-1.42413 -0.51338,-0.003 -1.0017,-0.14648 -1.45803,-0.42743 -0.37737,-0.23234 -0.9563,-0.54398 -1.2865,-0.69252 -2.09649,-0.94314 -2.89316,-1.47052 -5.31751,-3.52006 -2.9631,-2.505 -3.48494,-2.8284 -5.11395,-3.16923 -0.62277,-0.1303 -1.56016,-0.38713 -2.08309,-0.57074 -0.52293,-0.1836 -1.3964,-0.42453 -1.94105,-0.53541 -1.11222,-0.2264 -2.23917,-0.9798 -2.78345,-1.86079 -0.18869,-0.30542 -0.49745,-0.79886 -0.68613,-1.09654 -0.23049,-0.36363 -0.88636,-0.83188 -1.99872,-1.42698 -0.91061,-0.48715 -1.89003,-1.07092 -2.17648,-1.29726 -0.65088,-0.51429 -2.45826,-2.66278 -3.12675,-3.71689 l -0.50279,-0.79282 v 2.40755 c 0,1.32415 0.0504,3.79935 0.11202,5.50044 l 0.11204,3.0929 1.38539,0.66544 c 1.82633,0.87723 3.16907,1.75764 4.73726,3.10611 0.70757,0.60843 2.32856,1.80223 3.60219,2.65289 2.70923,1.80949 3.42624,2.45597 4.14743,3.73943 0.29312,0.52166 1.50269,1.94713 2.7022,3.18455 1.19435,1.2321 2.30622,2.52399 2.47083,2.87086 0.31557,0.66503 0.72741,0.97839 1.28586,0.97839 0.57607,0 3.332,1.48246 5.09774,2.74216 0.92752,0.6617 1.73982,1.20309 1.8051,1.20309 0.0653,0 0.16848,-0.17367 0.22931,-0.38595 z m -56.051974,-4.40527 c 0.59067,-0.46462 1.00517,-0.4475 2.00102,0.0826 l 0.82165,0.4374 0.83091,-0.60994 c 1.64743,-1.20933 2.35135,-1.31308 3.33406,-0.49144 0.41464,0.34669 0.60947,0.39522 1.2194,0.30375 0.56139,-0.0842 0.89312,-0.0235 1.46377,0.26758 0.56912,0.29035 0.8983,0.35083 1.43937,0.26448 1.06663,-0.17024 1.38491,-0.46266 1.6255,-1.49345 0.11771,-0.50428 0.49829,-1.57026 0.84574,-2.36885 l 0.63172,-1.45198 1.0292,-0.0196 c 0.56605,-0.0108 1.29935,0.0447 1.62956,0.12333 0.36089,0.0859 1.148094,0.0624 1.973584,-0.0589 l 1.37322,-0.2018 0.76941,-0.95677 c 0.42317,-0.52623 1.39272,-1.69009 2.15455,-2.58634 0.76183,-0.89626 2.07382,-2.47865 2.91555,-3.51643 l 1.5304,-1.88686 0.11475,-1.2865 c 0.11656,-1.30679 0.0146,-12.47402 -0.12,-13.14633 -0.0412,-0.20607 -0.44644,-0.60643 -0.92359,-0.91262 -1.07764,-0.69152 -1.97041,-1.67579 -2.22802,-2.45638 -0.11029,-0.33419 -0.32403,-0.655 -0.47497,-0.71292 -0.15094,-0.0579 -1.92599,-0.0526 -3.94455,0.0119 l -3.670124,0.11721 -0.33558,0.47127 c -0.18456,0.2592 -0.65777,1.14276 -1.05157,1.96346 -0.64592,1.34614 -0.71291,1.60725 -0.68441,2.66811 0.0279,1.03674 -0.011,1.19876 -0.32866,1.36874 -0.88092,0.47146 -2.21436,-0.83437 -2.56201,-2.50895 -0.10648,-0.51293 -0.37772,-1.15141 -0.60275,-1.41884 -0.48927,-0.58147 -2.08683,-1.32496 -3.19356,-1.48626 -0.77531,-0.11299 -0.80009,-0.10266 -0.89293,0.37237 -0.0525,0.26873 -0.14519,1.14655 -0.20593,1.95072 -0.15722,2.08161 0.0659,2.78222 1.23566,3.87942 0.78932,0.74037 0.9942,1.06241 1.27825,2.00923 0.18605,0.62015 0.42368,1.18033 0.52807,1.24485 0.22243,0.13747 2.47136,0.5971 2.97112,0.60722 0.18868,0.004 0.66336,-0.0481 1.05484,-0.11548 0.63,-0.10837 0.7422,-0.0758 0.97661,0.28379 0.58708,0.90048 0.85524,5.10657 0.39536,6.20096 -0.52111,1.24007 -2.12208,2.29356 -3.73645,2.4587 -0.50616,0.0518 -1.13053,0.1735 -1.3875,0.27049 -0.38778,0.14638 -0.59227,0.10307 -1.20293,-0.2548 -0.40464,-0.23714 -1.12068,-0.48731 -1.59119,-0.55592 -2.15479,-0.31426 -3.63892,-1.26067 -4.29436,-2.73847 -0.20928,-0.47188 -0.55481,-1.01233 -0.76784,-1.20102 -0.59541,-0.52736 -1.01705,-1.61284 -1.02124,-2.62907 -0.003,-0.77854 -0.078,-0.98793 -0.50517,-1.41515 -0.55841,-0.5584 -1.05371,-0.63711 -1.45897,-0.23185 -0.33398,0.33397 -0.33381,0.39244 0.003,1.19949 0.15012,0.3593 0.31346,1.35289 0.36298,2.20799 0.0814,1.40548 0.0549,1.59881 -0.27563,2.01402 -0.53455,0.67141 -1.39439,0.90989 -2.38302,0.66095 -0.83736,-0.21085 -2.51478,-1.31481 -3.36978,-2.21775 -0.27709,-0.29263 -0.55484,-0.53206 -0.6172,-0.53206 -0.0624,0 -0.25385,0.31148 -0.42551,0.69217 -0.47298,1.04888 -1.40892,1.7732 -3.85038,2.97981 -1.22164,0.60376 -2.6,1.41719 -3.06303,1.80761 -0.81542,0.68757 -1.74628,2.09383 -1.74628,2.63812 0,0.14659 0.30876,0.62328 0.68614,1.0593 0.37737,0.43602 0.68612,0.94245 0.68612,1.1254 0,0.18294 0.0579,0.33562 0.12866,0.33928 3.21083,0.1659 6.08163,0.16329 8.63363,-0.008 2.95398,-0.19809 3.23418,-0.19158 3.82516,0.0889 1.00054,0.47478 1.65624,2.09506 1.28214,3.16821 -0.19553,0.56088 -0.90073,1.03072 -1.55359,1.03506 -0.91429,0.006 -0.93366,0.27264 -0.0857,1.17919 0.64022,0.68445 0.80619,0.98447 0.80619,1.45735 0,1.14478 0.87112,1.34552 1.99671,0.46013 z m 10.80737,-13.22133 c 1.34169,-0.15517 2.51445,-0.72227 3.11025,-1.50398 0.44637,-0.58566 0.467,-0.70068 0.46595,-2.59831 -6e-4,-1.09204 -0.0632,-2.35217 -0.13916,-2.8003 -0.15455,-0.91208 -0.34093,-0.99042 -1.35169,-0.56809 -0.53844,0.22497 -0.63466,0.21752 -1.09303,-0.0846 -0.3152,-0.20779 -0.80151,-0.33175 -1.30423,-0.33246 -1.11528,-0.002 -1.70178,-0.52509 -2.11418,-1.88712 -0.24724,-0.81659 -0.46327,-1.16417 -0.97595,-1.57021 -0.36213,-0.28681 -0.86627,-0.87617 -1.12033,-1.30968 -0.40172,-0.68548 -0.4629,-0.97957 -0.46945,-2.2566 -0.004,-0.80762 0.0532,-1.94142 0.12728,-2.51957 l 0.1348,-1.05117 -1.85013,-0.11667 c -2.65491,-0.16742 -2.82467,-0.21525 -3.80371,-1.07168 -0.48802,-0.42691 -0.99106,-0.73315 -1.12185,-0.68296 -0.13041,0.05 -0.29228,0.34707 -0.35971,0.66006 -0.29912,1.38839 -0.74698,1.79873 -2.31121,2.11757 -0.91285,0.18607 -0.94621,0.21277 -1.0292,0.82394 -0.0624,0.45928 -0.39363,0.99408 -1.21403,1.95989 -0.62054,0.73054 -1.26628,1.54059 -1.43497,1.80012 -0.30636,0.47132 -0.30599,0.47265 0.31348,1.15834 0.34111,0.37756 0.61955,0.78274 0.61876,0.9004 -6.5e-4,0.11766 -0.25654,1.35318 -0.56835,2.7456 l -0.56692,2.53168 0.52547,0.47725 c 1.05287,0.95625 2.76592,2.22288 3.18423,2.35442 0.98445,0.30956 1.75203,0.18872 2.09865,-0.33038 0.24136,-0.36148 0.129,-2.25616 -0.20256,-3.41556 -0.35655,-1.24682 -0.32792,-1.52736 0.21776,-2.13358 0.463,-0.51436 1.24437,-0.49761 2.04106,0.0438 0.66181,0.44971 0.98825,1.19508 0.99012,2.26077 0.001,0.72868 0.2767,1.4186 0.77492,1.94107 0.225,0.23595 0.66524,0.92217 0.97832,1.52494 0.70281,1.35311 1.65276,1.95878 3.67169,2.34101 0.74336,0.14074 1.54454,0.40493 1.7804,0.5871 0.23586,0.18217 0.54462,0.28526 0.68613,0.22909 0.14152,-0.0562 0.73164,-0.15699 1.31139,-0.22404 z"
       id="path2" /></g></svg>
