<?xml version="1.0" encoding="UTF-8" standalone="no"?>
<!-- Created with Inkscape (http://www.inkscape.org/) -->

<svg
   width="210mm"
   height="297mm"
   viewBox="0 0 210 297"
   version="1.1"
   id="svg1"
   xml:space="preserve"
   xmlns="http://www.w3.org/2000/svg"
   xmlns:svg="http://www.w3.org/2000/svg"><defs
     id="defs1" /><g
     id="layer1"><path
       style="fill:#92cbff;fill-opacity:0.447368;stroke:#000000;stroke-width:0.4;stroke-dasharray:none;stroke-opacity:1"
       d="m 354.18403,472.72393 c -3.97547,-2.18957 -0.38408,-2.96516 0.52342,-1.69604 0.51258,0.71684 0.93197,1.46098 0.93197,1.65365 0,0.42211 -0.72762,0.44349 -1.45521,0.0428 z m -247.7823,-9.14016 c -1.62407,-0.39833 -2.24511,-0.66994 -3.9544,-1.72944 l -1.17628,-0.72911 h -9.737792 -9.73778 l 0.008,-20.43906 0.008,-20.43907 0.68018,0.79375 c 2.25331,2.62955 3.27185,4.02103 3.27185,4.46985 0,0.23372 -0.0893,0.43035 -0.19844,0.43695 -0.10914,0.007 -0.83357,0.59062 -1.60985,1.29781 l -1.41142,1.28579 0.60209,1.04615 c 0.54957,0.95491 0.74014,1.07182 2.1849,1.34051 0.87055,0.16189 1.67715,0.44657 1.79245,0.63261 0.1153,0.18604 0.58387,1.37552 1.04127,2.6433 0.78198,2.16741 0.95089,2.41229 2.8288,4.10104 1.09843,0.9878 2.32537,2.09365 2.72651,2.45745 0.40115,0.3638 1.11216,1.43537 1.58003,2.38125 0.46786,0.94589 0.98413,1.80687 1.14727,1.91329 0.16313,0.10642 1.30529,0.56022 2.53813,1.00843 1.816262,0.66032 3.832242,1.88228 4.769932,2.89122 0.12175,0.13101 0.87948,0.74753 5.78174,4.70425 1.43277,1.15642 1.89794,1.38906 2.77745,1.38906 0.63501,0 1.26033,0.1847 1.56758,0.46302 0.42896,0.38858 1.03842,0.46302 3.79044,0.46302 h 3.2793 l 7e-4,2.02049 c 7e-4,1.99795 -0.007,2.02188 -0.7269,2.14444 -0.40018,0.0682 -1.76282,0.40628 -3.02809,0.75134 l -2.30049,0.6274 -0.68074,-0.63953 -0.68075,-0.63952 -1.1568,1.13531 c -1.07332,1.05338 -1.2496,1.13094 -2.44272,1.0747 -1.85293,-0.0874 -1.90551,-0.0675 -1.99677,0.75394 l -0.0829,0.74628 z M 81.795478,414.1532 c -0.65484,-0.20274 -2.30492,-1.02789 -3.66684,-1.83366 l -2.47621,-1.46504 h -2.64429 -2.64429 l -1.28523,-1.15554 c -2.10354,-1.89126 -2.84791,-2.14291 -6.20085,-2.09639 -1.60073,0.0222 -5.70839,0.28506 -9.12812,0.5841 -6.78459,0.59328 -10.08953,0.72406 -10.58342,0.41882 -0.46618,-0.28811 -1.05825,-1.84291 -1.05825,-2.77897 0,-0.70197 -0.15196,-0.87759 -1.12448,-1.29953 -1.33082,-0.5774 -2.12954,-1.40709 -2.54304,-2.64166 -0.44245,-1.321 -0.37827,-2.32707 0.27686,-4.33989 0.56778,-1.74442 0.57141,-1.82635 0.11824,-2.66783 -0.25714,-0.47747 -0.77822,-1.20321 -1.15796,-1.61274 l -0.69043,-0.7446 0.64217,-0.52079 c 0.3532,-0.28644 0.87962,-0.68742 1.16982,-0.89108 0.52642,-0.36943 0.52636,-0.37391 -0.0263,-1.95162 -0.46796,-1.33579 -0.5149,-1.80822 -0.30228,-3.0423 0.13844,-0.80353 0.1838,-1.63792 0.1008,-1.85422 -0.23659,-0.61653 -1.4503,-0.46288 -2.78409,0.35244 -1.06413,0.65049 -6.27302,3.22305 -6.52599,3.22305 -0.0511,0 -0.20529,-0.38695 -0.34255,-0.85989 -0.13726,-0.47295 -1.09898,-3.24115 -2.13715,-6.15157 l -1.8876,-5.29166 -0.78568,-6.87917 c -0.43213,-3.78354 -0.78569,-6.90893 -0.7857,-6.94531 0,-0.0364 0.74413,-0.0672 1.65364,-0.0684 0.9095,-10e-4 2.26248,-0.0755 3.00662,-0.16487 l 1.35299,-0.16257 0.83517,-2.54711 0.83517,-2.54711 1.91289,-0.92604 c 1.05209,-0.50932 1.93581,-1.10463 1.96382,-1.32292 0.028,-0.21828 0.12895,-1.56478 0.2243,-2.99223 l 0.17338,-2.59536 1.42934,-0.67676 1.42934,-0.67676 -0.0102,-2.68101 -0.0102,-2.681 -1.55918,-1.32292 c -0.85755,-0.7276 -1.56732,-1.43431 -1.57725,-1.57047 -0.01,-0.13616 0.43786,-0.791 0.99511,-1.45521 1.75418,-2.09088 1.93658,-2.50687 2.09172,-4.7703 l 0.14571,-2.12589 h 1.63249 c 1.4582,0 1.71143,-0.0824 2.37197,-0.77187 l 0.73949,-0.77186 -0.45525,-1.37064 c -0.37168,-1.11904 -0.42146,-1.86642 -0.27115,-4.07165 l 0.1841,-2.70101 1.10259,-0.32556 c 1.99605,-0.58936 1.9595,-0.35844 0.74567,-4.71134 -1.58652,-5.68939 -1.57019,-5.53609 -0.68797,-6.45693 l 0.74687,-0.77956 h 24.14013 24.14014 l -0.0128,1.93466 c -0.009,1.28901 0.13053,2.21177 0.41661,2.76499 0.23616,0.45668 0.42938,1.26778 0.42938,1.80245 0,0.90258 0.30822,1.28214 4.30782,5.30481 l 4.307822,4.33267 h 1.24287 c 0.68358,0 2.02956,0.25825 2.99106,0.57389 l 1.74819,0.57389 1.88146,-0.60596 1.88146,-0.60597 0.5431,0.68653 c 1.98353,2.50737 1.83602,1.95007 1.51057,5.70702 -0.16118,1.86073 -0.36825,3.57907 -0.46014,3.81854 -0.11533,0.30055 -0.4848,0.4354 -1.19293,0.4354 -0.76729,0 -1.24364,0.19811 -1.88992,0.78599 l -0.86407,0.786 1.20487,0.008 c 1.01877,0.007 1.34014,0.14733 2.08072,0.91141 l 0.87586,0.90366 -1.1103,0.7009 c -0.83409,0.52654 -1.06351,0.81184 -0.92222,1.14687 0.58885,1.39626 0.50375,1.55261 -0.95011,1.74547 -1.19555,0.15859 -1.76143,0.47371 -4.19092,2.33376 -8.123762,6.21967 -8.100782,6.19985 -8.878182,7.65644 -0.41398,0.77566 -0.96145,1.64841 -1.2166,1.93946 -0.25515,0.29104 -1.48837,1.93849 -2.74049,3.66101 l -2.27659,3.13185 -0.008,2.29211 c -0.004,1.26066 -0.11521,3.76615 -0.24612,5.56775 -0.23374,3.21693 -0.25375,3.29191 -1.11637,4.18312 -0.92511,0.95577 -4.69248,2.99228 -5.53546,2.99228 -0.61164,0 -1.6067,-1.47855 -2.35595,-3.5007 -0.67924,-1.83316 -1.05675,-2.14772 -1.05675,-0.88054 0,0.92804 -0.0163,0.94197 -1.12448,0.96334 l -1.12448,0.0217 1.32292,0.60723 c 0.82627,0.37927 1.75159,1.11683 2.46479,1.96465 l 1.14187,1.35741 -1.20984,0.5186 c -1.743,0.74714 -4.19862,2.47857 -5.15874,3.63738 -1.01699,1.22744 -1.52112,2.89212 -1.85191,6.11522 -0.13942,1.35843 -0.38452,2.62775 -0.54466,2.82071 -0.20127,0.24252 -0.20551,0.40378 -0.0137,0.5223 0.15261,0.0943 0.27744,1.04216 0.27744,2.10659 0,1.40866 0.15554,2.28619 0.57173,3.22553 0.6885,1.55393 1.52969,4.69122 1.55201,5.78832 0.0279,1.37299 0.64869,2.65386 3.00711,6.2049 2.71906,4.09405 3.6004,5.69362 3.6004,6.53451 0,0.72396 -0.35913,0.76071 -2.11667,0.21658 z M 43.987848,304.81047 c -0.46575,-0.92265 -0.80721,-2.05808 -0.85577,-2.84565 l -0.0808,-1.31044 1.84345,-1.13573 c 1.0139,-0.62465 2.02205,-1.21162 2.24033,-1.30439 0.30827,-0.13101 1.91524,-1.09939 2.61716,-1.57714 0.057,-0.0388 -0.89551,-1.08385 -2.11667,-2.32236 l -2.22028,-2.25184 -1.85208,-0.0149 c -1.82431,-0.0147 -1.86101,-0.0289 -2.4474,-0.94813 -0.32742,-0.51326 -0.59531,-1.33891 -0.59531,-1.83478 v -0.90159 l 4.65636,-0.0723 4.65635,-0.0723 0.65416,-1.16514 c 0.6468,-1.15202 0.88117,-2.49616 0.50105,-2.87348 -0.10789,-0.10709 -1.84965,-0.19471 -3.87057,-0.19471 h -3.67441 l -0.13856,-1.12448 c -0.0762,-0.61846 -0.20207,-1.6382 -0.2797,-2.26608 -0.11436,-0.92494 -0.039,-1.234 0.39687,-1.62851 0.46127,-0.41743 0.53821,-0.81137 0.53926,-2.761 10e-4,-2.18405 0.0341,-2.3092 0.83218,-3.16077 0.45703,-0.48767 0.71926,-0.96392 0.58273,-1.05833 -0.13653,-0.0944 -1.10633,-0.73481 -2.15511,-1.4231 -1.04877,-0.68829 -1.90679,-1.34313 -1.9067,-1.45521 10e-5,-0.11207 0.54732,-0.90075 1.21607,-1.7526 0.66874,-0.85186 1.11515,-1.6392 0.99202,-1.74963 -0.12313,-0.11044 -1.20614,-1.05714 -2.40669,-2.10377 l -2.18281,-1.90296 v -2.00878 c 0,-1.38786 0.17375,-2.4853 0.56209,-3.55038 0.54231,-1.48732 0.54826,-1.63134 0.16904,-4.09072 l -0.39305,-2.54912 0.88929,0.16095 c 0.48911,0.0885 1.28027,0.23188 1.75814,0.31858 l 0.86884,0.15762 -0.0606,-1.08367 -0.0606,-1.08367 h 38.87923 c 22.739162,0 38.879242,0.0984 38.879242,0.23711 0,0.13041 1.22602,0.62261 2.72449,1.09379 2.20202,0.6924 2.73205,0.95704 2.76391,1.38 0.0217,0.28782 0.24286,0.74812 0.49152,1.02288 0.39007,0.43103 0.39613,0.49956 0.0441,0.49956 -0.23633,0 -0.96117,0.97404 -1.7228,2.3151 -0.96372,1.6969 -1.47454,2.33877 -1.91295,2.40371 -0.52889,0.0784 -0.58026,0.19876 -0.44374,1.04001 0.0849,0.52327 0.30721,1.09719 0.49399,1.27536 0.18678,0.17817 1.69386,1.00877 3.34907,1.84578 2.88751,1.46015 2.984,1.53596 2.38125,1.87075 -0.34552,0.19192 -1.80591,0.97915 -3.24531,1.7494 -1.84366,0.98658 -2.743,1.63356 -3.04316,2.18923 -1.39823,2.58857 -2.35032,4.13299 -3.35182,5.43714 l -1.13145,1.47336 0.49892,2.49539 c 0.58986,2.9503 0.62683,3.73441 0.19638,4.16486 -0.2504,0.25041 -0.22674,0.47814 0.1087,1.04599 0.33005,0.55874 0.37903,0.99802 0.2127,1.90762 -0.22391,1.22447 -0.35674,1.37771 -3.40175,3.92442 -0.74913,0.62653 -1.36205,1.33045 -1.36205,1.56425 0,0.2338 0.30407,0.94395 0.67571,1.57811 l 0.67571,1.15301 -0.56144,0.78846 c -0.5549,0.77929 -1.39893,1.03696 -1.71602,0.52388 -0.21356,-0.34554 -3.19432,-0.33997 -4.82154,0.009 -0.8521,0.18274 -1.62517,0.59481 -2.32813,1.24094 -1.71107,1.57276 -2.77158,2.19987 -3.43755,2.03273 -0.64409,-0.16166 -1.5438,0.22888 -3.355882,1.45671 -1.7433,1.18122 -1.97811,1.49249 -3.90941,5.18249 l -1.80024,3.43958 -24.36652,0.0675 -24.36652,0.0675 z m 87.620082,-45.12296 -1.38443,-0.8366 -0.005,-1.63803 c -0.003,-0.90092 -0.1281,-1.71433 -0.27899,-1.80759 -0.15089,-0.0932 -0.89503,-0.20683 -1.65364,-0.25239 -0.75862,-0.0456 -1.41326,-0.0953 -1.45476,-0.11064 -0.2105,-0.0776 0.53522,-1.08614 0.80308,-1.08614 0.17166,0 1.29857,-0.48193 2.50423,-1.07096 1.85934,-0.90838 2.19211,-1.16945 2.19211,-1.71979 0,-0.61753 -0.0798,-0.64973 -1.65365,-0.66743 -0.9095,-0.0102 -1.88539,-0.10929 -2.16864,-0.22013 -0.47697,-0.18666 -0.4672,-0.21432 0.13229,-0.37467 0.35601,-0.0952 1.18867,-0.17475 1.85036,-0.17674 1.05418,-0.003 1.3319,-0.13554 2.24393,-1.06955 0.8924,-0.91389 1.15479,-1.04316 1.83964,-0.90628 1.54468,0.30871 1.7289,0.42975 2.40181,1.57797 0.65586,1.11915 0.67594,1.28522 0.59617,4.93174 l -0.0825,3.77358 -1.40109,0.40853 c -1.06037,0.30918 -1.53318,0.61764 -1.94421,1.26842 -0.29872,0.47294 -0.68026,0.84941 -0.84787,0.83659 -0.16761,-0.0128 -0.92774,-0.39977 -1.68917,-0.85989 z M 42.776038,245.50048 c -0.0863,-0.13964 -0.13007,-0.65252 -0.0972,-1.13973 0.0332,-0.49339 -0.13861,-1.1689 -0.38787,-1.52477 -0.37714,-0.53844 -0.44753,-1.33709 -0.44753,-5.07797 v -4.43905 h 2.5671 c 2.49389,0 2.59044,0.0226 3.38595,0.79368 l 0.81887,0.79367 0.95693,-0.99211 c 0.80421,-0.83378 1.07123,-1.43547 1.67315,-3.77024 0.39393,-1.52797 0.79112,-2.8584 0.88264,-2.95652 0.15365,-0.16473 3.32686,-1.046 8.69922,-2.41596 l 2.18281,-0.55662 v -3.08946 -3.08945 l 1.25677,-0.3087 c 0.69123,-0.16978 2.15236,-0.54682 3.24697,-0.83786 l 1.9902,-0.52918 0.90889,-1.68418 c 0.78805,-1.46025 1.13906,-1.81637 2.64001,-2.67841 1.18799,-0.6823 3.08008,-2.3257 6.0306,-5.23797 l 4.29948,-4.24373 v -8.71462 -8.71461 l 2.57969,0.18128 2.57968,0.18128 1.12448,1.10348 c 0.61847,0.60692 1.12448,1.1864 1.12448,1.28773 0,0.10133 -0.65484,0.55381 -1.45521,1.0055 -0.80036,0.4517 -1.4552,0.91919 -1.4552,1.03887 0,0.11968 0.64484,0.83304 1.43298,1.58524 l 1.43297,1.36764 h 2.37333 2.37333 l 1.08205,1.82136 1.08205,1.82136 2.18925,0.58945 c 1.204082,0.3242 2.271512,0.72063 2.372072,0.88096 0.10055,0.16034 0.15264,0.67472 0.11575,1.14306 -0.0652,0.82828 -0.0341,0.85504 1.1401,0.97927 0.66394,0.0702 6.08872,0.0987 12.05508,0.0632 12.06688,-0.0717 10.85942,-0.23406 14.55208,1.95623 2.56489,1.52136 7.2327,4.21603 8.86354,5.11682 l 1.19063,0.65764 0.0693,9.92684 0.0693,9.92684 2.17965,1.29684 c 1.19881,0.71326 3.22145,1.87509 4.49476,2.58185 1.27331,0.70677 2.3151,1.37332 2.3151,1.48124 0,0.23153 -0.10113,0.25358 -6.08541,1.32706 -7.77224,1.3942 -6.44148,1.61324 -14.40081,-2.37024 l -6.86018,-3.43337 -1.20961,1.33117 c -0.66529,0.73214 -1.30575,1.5294 -1.42325,1.7717 -0.1275,0.26291 0.0662,1.77018 0.48051,3.73822 1.22263,5.80826 1.26771,6.15675 1.06979,8.26894 l -0.19119,2.04021 H 81.788558 c -24.52765,0 -38.91342,-0.0936 -39.01248,-0.2539 z m 5.15277,-14.03323 c 0,-0.16105 -1.19062,-0.26459 -3.04271,-0.26459 h -3.04271 v -3.175 -3.175 h 1.03944 c 0.94149,0 1.87098,-0.50887 1.87098,-1.02431 0,-0.44898 -0.69617,-0.82777 -1.52133,-0.82777 h -0.88633 l 0.0793,-1.51251 c 0.0792,-1.5095 0.0813,-1.51297 1.07154,-1.74607 0.5457,-0.12846 0.98967,-0.31104 0.9866,-0.40572 -0.003,-0.0947 -0.22756,-1.54138 -0.49887,-3.21487 -0.2713,-1.67349 -0.44869,-3.11851 -0.39421,-3.21115 0.0545,-0.0926 0.50909,-0.24536 1.01021,-0.33937 0.80628,-0.15126 1.00939,-0.37262 1.76486,-1.92336 l 0.85373,-1.75243 -0.30673,-2.30381 c -0.40601,-3.04944 -0.40115,-3.10527 0.28858,-3.31672 0.32742,-0.10037 1.46112,-0.58465 2.51934,-1.07616 1.05822,-0.49152 2.02342,-0.89366 2.14488,-0.89366 0.3621,0 2.21134,-3.02187 1.91059,-3.12211 -0.15222,-0.0507 -0.68451,-0.47036 -1.18286,-0.93247 -0.86862,-0.80546 -0.91221,-0.93673 -1.05383,-3.17334 -0.12593,-1.98898 -0.26651,-2.52618 -0.95308,-3.64199 l -0.80535,-1.30888 v -7.95092 c 0,-5.38564 0.0963,-8.13738 0.29853,-8.52884 0.1642,-0.31785 1.20894,-1.53041 2.32165,-2.69458 1.19964,-1.25511 2.28117,-2.68206 2.65711,-3.50573 0.34869,-0.76398 0.71294,-1.38906 0.80943,-1.38906 0.0965,0 1.0584,0.9814 2.13759,2.1809 1.07918,1.1995 2.93256,3.19379 4.11862,4.43177 3.59497,3.75232 4.01871,4.29906 4.33033,5.5872 l 0.29505,1.21967 2.69449,0.13757 c 2.17927,0.11128 2.87156,0.25038 3.62053,0.72749 1.60389,1.02173 6.71499,3.96538 7.47448,4.30481 l 0.7276,0.32518 v 8.86841 8.86841 l -3.9026,3.86197 c -2.85181,2.82211 -4.38223,4.12415 -5.68391,4.83569 -1.54468,0.84438 -1.89614,1.18311 -2.64583,2.54999 -0.47549,0.86695 -1.04313,1.62235 -1.26141,1.67867 -0.21828,0.0563 -1.85539,0.49606 -3.63802,0.97721 l -3.24114,0.87483 -0.001,3.05855 -10e-4,3.05855 -3.9012,1.01607 c -2.14566,0.55884 -4.51426,1.20187 -5.26356,1.42897 l -1.36236,0.4129 -0.54638,1.87832 c -0.30051,1.03308 -0.68385,2.44388 -0.85186,3.1351 -0.18116,0.7453 -0.45421,1.25677 -0.67094,1.25677 -0.20101,0 -0.36547,-0.11906 -0.36547,-0.26458 z M 148.60277,230.188 c -1.16416,-0.69733 -3.0394,-1.78756 -4.16718,-2.42275 l -2.05052,-1.15487 v -9.87858 -9.87858 l -0.8599,-0.52423 c -0.47294,-0.28833 -0.95409,-0.5561 -1.06921,-0.59505 -0.11512,-0.0389 -0.20433,-14.59481 -0.19824,-32.34636 l 0.0111,-32.27555 8.95326,-0.13229 8.95325,-0.13229 5.10095,-5.09323 c 2.80551,-2.80126 5.26932,-5.09322 5.47513,-5.09322 0.2058,0 0.97495,0.30443 1.70921,0.67651 0.96551,0.48926 1.42778,0.59953 1.67015,0.39838 0.18432,-0.15297 1.03812,-1.31363 1.89733,-2.57923 0.8592,-1.2656 1.64816,-2.42714 1.75323,-2.58119 0.11374,-0.16676 1.46152,0.98578 3.33126,2.84871 l 3.14023,3.1288 2.0457,-0.28453 c 3.71703,-0.51699 3.45072,-0.61011 7.63305,2.66897 l 3.76706,2.95348 0.023,2.38437 0.023,2.38437 1.03531,0.87358 c 0.56942,0.48047 2.5236,1.67161 4.34261,2.64698 7.96247,4.26956 9.91734,5.74503 10.21161,7.70736 0.22508,1.50093 -0.40877,3.86254 -1.61978,6.03501 -0.80309,1.4407 -0.8708,1.71446 -0.63511,2.56804 0.58005,2.10079 3.79779,4.30434 6.72687,4.60664 l 1.45599,0.15028 10e-4,1.48433 c 7.5e-4,0.81639 0.0675,2.61544 0.14826,3.99788 l 0.14689,2.51355 -1.87038,2.51354 c -8.42991,11.32869 -7.77407,10.3272 -7.44179,11.36383 l 0.30108,0.93929 -2.19115,2.07722 c -1.53882,1.45881 -2.74254,2.33466 -4.04324,2.94193 -4.92984,2.30166 -20.43561,6.0003 -42.14719,10.0535 l -2.45969,0.45918 -2.50675,-1.65294 c -1.37872,-0.90912 -2.56854,-1.59115 -2.64406,-1.51564 -0.0755,0.0755 -0.0554,1.4049 0.0448,2.95417 l 0.18211,2.81686 0.9942,0.55878 c 1.13299,0.63677 1.26193,1.11404 1.3426,4.96966 l 0.0467,2.23146 -1.36334,0.66753 -1.36335,0.66753 v 2.32653 c 0,2.30524 -0.006,2.32653 -0.66146,2.32653 -0.6075,0 -0.66145,0.0971 -0.66145,1.18986 0,0.9881 0.15694,1.36359 0.92559,2.21439 0.90676,1.00367 0.92224,1.05889 0.76025,2.71274 -0.13679,1.39664 -0.30562,1.83673 -0.9775,2.54811 -0.44668,0.47294 -0.87809,0.85734 -0.95868,0.85421 -0.0806,-0.003 -1.09904,-0.57622 -2.26321,-1.27356 z m -16.27187,-29.17991 -5.42396,-3.12279 -11.24479,-0.005 -11.24479,-0.005 v -0.83486 c 0,-0.95689 -0.11232,-1.01741 -3.43453,-1.85065 -1.830182,-0.45902 -2.187322,-0.64149 -2.459632,-1.25669 -0.17521,-0.39584 -0.67158,-1.27634 -1.10303,-1.95667 l -0.78446,-1.23697 -2.65886,-0.0755 c -1.50719,-0.0428 -2.67775,-0.19013 -2.70247,-0.34011 -0.024,-0.14552 0.63107,-0.62177 1.45569,-1.05834 0.82463,-0.43656 1.49966,-0.85563 1.50007,-0.93126 4.2e-4,-0.0756 -1.1041,-1.23778 -2.45448,-2.58255 l -2.45524,-2.44503 -2.96872,-0.16986 -2.96872,-0.16986 v -9.74915 -9.74916 h 17.859382 17.85937 v -7.01975 -7.01974 l 9.40503,0.0744 9.40504,0.0744 0.008,27.20924 c 0.005,14.96509 -0.0307,27.23941 -0.0785,27.27628 -0.0478,0.0369 -2.52772,-1.33823 -5.5109,-3.05576 z m -55.297922,-21.74838 -4.10104,-2.41331 -2.24741,-0.14032 c -2.18778,-0.13659 -2.25095,-0.15926 -2.38125,-0.85436 -0.12272,-0.65471 -1.37708,-2.1011 -7.1741,-8.27239 -0.96173,-1.02382 -2.29534,-2.48396 -2.96359,-3.24477 l -1.21499,-1.38328 0.0712,-4.83443 0.0712,-4.83442 0.77326,-1.19063 c 0.42529,-0.65484 0.83665,-1.25015 0.91413,-1.32291 0.78744,-0.73944 1.10992,-1.76975 0.97205,-3.10559 l -0.14826,-1.43657 2.48057,-3.08673 2.48058,-3.08674 -0.65128,-0.68215 c -0.64946,-0.68024 -0.65078,-0.69284 -0.47155,-4.49791 0.17059,-3.62134 0.21308,-3.84465 0.83399,-4.38281 0.58016,-0.50284 0.63395,-0.70241 0.47498,-1.76249 -0.1951,-1.30097 -0.29092,-1.37601 -2.10443,-1.64796 -0.67344,-0.10099 -1.22445,-0.20878 -1.22445,-0.23953 0,-0.0307 0.28677,-0.89902 0.63725,-1.9295 l 0.63726,-1.8736 -0.97282,-0.78177 c -0.90215,-0.72499 -0.96588,-0.86898 -0.87734,-1.98218 l 0.0955,-1.20041 2.34791,-1.13447 c 2.57193,-1.24271 2.37395,-0.95323 2.6928,-3.93735 0.0627,-0.58702 0.29418,-0.70593 2.31755,-1.19062 l 2.24786,-0.53848 0.55261,-1.38936 c 0.30393,-0.76415 0.61799,-1.45474 0.69789,-1.53465 0.0799,-0.0799 0.41649,0.50906 0.74797,1.30881 0.42567,1.027 0.81337,1.54136 1.31995,1.7512 0.54453,0.22555 0.77329,0.56269 0.94991,1.39993 0.27083,1.2838 0.50305,1.37396 2.88251,1.11914 1.62576,-0.1741 1.66033,-0.19486 2.51113,-1.50788 0.74735,-1.15334 0.95519,-1.31315 1.55458,-1.19525 2.84057,0.55875 2.60706,0.60502 2.96432,-0.58741 0.33924,-1.13229 0.8914,-1.42397 1.15046,-0.60774 0.0832,0.26212 0.59724,0.9101 1.14231,1.43996 0.89312,0.86817 1.18625,0.98449 2.96639,1.17706 l 1.97534,0.21369 0.80278,1.37464 c 0.44153,0.75605 1.14253,1.94668 1.55778,2.64583 0.89468,1.5064 0.89865,1.53849 0.93579,7.56157 l 0.029,4.70285 1.13987,0.68851 c 0.99015,0.59807 1.12529,0.78792 1.02881,1.44531 -0.20522,1.39823 0.12442,1.93084 1.78771,2.88847 l 1.594132,0.9178 0.003,3.84066 0.003,3.84066 1.05833,1.81107 1.05834,1.81108 v 6.98212 6.98212 H 92.117658 81.272848 l -0.0693,10.1604 -0.0693,10.16039 z m 28.045832,-25.17867 v -7.27138 l -1.05833,-1.72912 -1.05833,-1.72911 v -4.20925 -4.20925 l -1.52136,-0.85638 c -0.83674,-0.47101 -1.570452,-0.89596 -1.630472,-0.94433 -0.06,-0.0484 -0.13866,-0.70285 -0.17478,-1.45439 -0.0384,-0.79799 -0.21309,-1.45447 -0.42005,-1.57807 -0.19491,-0.1164 -0.69285,-0.42475 -1.10652,-0.68521 l -0.75213,-0.47357 0.0346,-4.92725 0.0346,-4.92725 -1.89057,-3.27484 c -1.03981,-1.80115 -2.12626,-3.48087 -2.41432,-3.73271 -0.50875,-0.44478 -0.51079,-0.4978 -0.0714,-1.85208 0.2488,-0.76681 0.52702,-1.47229 0.61828,-1.56772 0.26253,-0.27457 6.734342,0.86403 7.198202,1.2664 0.53578,0.46474 9.932,0.53405 10.08522,0.0744 0.11428,-0.34284 2.9599,-0.50641 3.95246,-0.2272 0.38338,0.10785 1.21682,0.75834 1.85209,1.44553 0.96659,1.04561 1.17661,1.46702 1.28732,2.58306 l 0.13229,1.33361 1.45521,0.0239 1.45521,0.0239 0.0739,3.68622 0.0739,3.68623 -1.0778,1.09819 -1.0778,1.0982 -0.0545,11.35514 -0.0545,11.35517 -0.99219,0.0821 -0.99219,0.0821 v 6.8632 6.86319 h -5.95312 -5.95313 z m 16.02112,-6.75154 c -0.0374,-0.0728 -0.0907,-4.92419 -0.1184,-10.78095 l -0.0504,-10.64864 1.20782,-1.29126 1.20782,-1.29126 -0.072,-5.1257 -0.072,-5.12571 -1.32291,-0.0277 c -1.90605,-0.0399 -1.92216,-0.0462 -1.79662,-0.70293 0.0893,-0.467 -0.32578,-1.03317 -1.89111,-2.57968 l -2.00548,-1.98138 -2.57736,-0.13229 -2.57735,-0.13229 -0.072,-5.1447 -0.072,-5.144699 1.64592,-5.50478 1.64592,-5.50478 h 1.67658 c 2.73418,0 3.77462,-1.12716 3.77462,-4.08922 0,-1.41339 0.0337,-1.48166 1.04688,-2.12126 0.57579,-0.36348 1.2232,-0.59321 1.43871,-0.51051 0.2155,0.0827 1.56567,-0.21672 3.00038,-0.66537 1.43471,-0.44865 2.72654,-0.81572 2.87072,-0.81572 0.14419,0 0.84852,0.59531 1.56518,1.32291 l 1.30303,1.32292 h 2.35658 c 2.21145,0 2.44835,0.0554 3.84641,0.89948 1.45254,0.87698 1.57562,0.90227 4.91941,1.01082 l 3.42959,0.11133 -0.0755,1.22824 c -0.0818,1.33112 -0.005,1.39307 1.94166,1.57237 0.71265,0.0656 0.80638,0.18615 0.98244,1.26318 0.10704,0.65484 0.26506,1.58358 0.35116,2.06386 l 0.15653,0.87325 1.5733,-0.0568 1.57329,-0.0568 1.79859,1.92017 1.79859,1.92017 -0.19473,1.89357 c -0.84295,8.196829 -0.74081,7.718309 -2.02387,9.481609 l -1.17923,1.6206 0.12401,2.80401 0.12401,2.80402 2.40756,4.79175 c 1.32416,2.63546 2.48323,5.09323 2.57571,5.46171 0.12548,0.49993 -0.0642,1.02968 -0.74728,2.08741 -0.50349,0.7796 -1.79311,2.81761 -2.86583,4.52891 -1.07272,1.71129 -2.50803,3.97348 -3.18957,5.02708 -0.68155,1.05359 -1.63177,2.60023 -2.11159,3.43697 l -0.87242,1.52136 h -4.79578 -4.79577 l 0.0282,4.29948 0.0282,4.29948 h -8.42578 c -4.63419,0 -8.45637,-0.0595 -8.49374,-0.1323 z m 28.95806,-8.59731 c 0,-0.13806 6.94963,-11.21917 8.88855,-14.17272 l 1.13943,-1.73568 -2.82198,-5.67265 -2.82198,-5.67266 -0.1015,-2.31052 -0.10149,-2.31053 1.08979,-1.36872 c 1.28218,-1.61035 1.16581,-1.1356 1.86133,-7.593559 l 0.55106,-5.11665 -2.78214,-2.98304 c -2.62761,-2.81734 -2.76863,-3.02546 -2.53879,-3.74688 0.13385,-0.42012 0.48516,-1.59729 0.78069,-2.61593 0.29552,-1.01865 1.01432,-3.45943 1.59732,-5.42396 1.32785,-4.47443 2.21796,-10.94663 2.0923,-15.21354 l -0.0857,-2.91042 16.47031,-0.0682 c 11.73007,-0.0485 16.47031,0.0147 16.47031,0.21961 0,0.15827 -0.34243,1.2605 -0.76096,2.4494 -0.53097,1.50829 -0.85858,3.16126 -1.08394,5.46893 -0.34667,3.54989 -0.42328,3.74655 -2.29041,5.87949 -0.67238,0.7681 -1.49389,1.71016 -1.82558,2.09346 -0.46835,0.54123 -0.70116,1.3657 -1.0421,3.69053 -0.24145,1.64649 -0.48944,3.07521 -0.55107,3.17493 -0.0616,0.0997 0.056,0.7397 0.26138,1.42216 0.32242,1.0713 0.32167,1.41518 -0.005,2.51679 -0.2084,0.70178 -0.56195,1.34619 -0.78566,1.43204 -0.55905,0.21453 -1.17106,1.77726 -1.22388,3.1251 -0.0397,1.01199 -0.26565,1.36234 -2.37951,3.68888 -2.26855,2.49679 -2.3357,2.60787 -2.3357,3.86369 v 1.292979 l -3.24115,3.05718 -3.24115,3.05718 -0.73852,3.72562 c -0.4994,2.51934 -1.04216,4.38282 -1.67633,5.75539 l -0.93781,2.02977 0.94873,0.97158 c 0.71636,0.73362 0.94933,1.19566 0.95119,1.88647 0.002,0.80674 0.31493,1.22385 2.64583,3.52858 1.45386,1.43754 2.64337,2.65196 2.64337,2.69872 0,0.32348 -1.68697,2.49227 -1.93697,2.4902 -0.17159,-10e-4 -0.93737,-0.29373 -1.70173,-0.64959 l -1.38975,-0.64702 -5.39303,5.41209 -5.39304,5.4121 h -3.60211 c -1.98117,0 -3.60212,-0.0588 -3.60212,-0.13065 z m 46.64549,-2.5914 c -0.17493,-0.17636 -0.47264,-0.43971 -0.66157,-0.58524 -0.18894,-0.14552 -1.83175,-1.44406 -3.6507,-2.88565 -1.81894,-1.44159 -3.43364,-2.71753 -3.5882,-2.83542 -0.15456,-0.11789 -1.54632,-0.0607 -3.0928,0.12717 l -2.81178,0.3415 -3.5181,-3.52535 c -1.93496,-1.93895 -3.5793,-3.52455 -3.65408,-3.52355 -0.0748,9.9e-4 -0.42194,0.4217 -0.77146,0.93491 l -0.6355,0.93311 -2.20877,-2.22373 c -1.91326,-1.92621 -2.20878,-2.34602 -2.20878,-3.13775 0,-0.63286 -0.20347,-1.10518 -0.66146,-1.53543 -0.80552,-0.75675 -0.81726,-1.0386 -0.1017,-2.44121 0.30786,-0.60346 0.90278,-2.77161 1.32204,-4.81811 l 0.76229,-3.72089 3.31495,-3.175 3.31495,-3.175 2.9e-4,-1.322919 c 3.1e-4,-1.4174 -0.0391,-1.35873 3.30535,-4.92349 1.01714,-1.08415 1.16483,-1.4038 1.33222,-2.88329 0.14358,-1.26913 0.35846,-1.85446 0.90558,-2.46679 l 0.71734,-0.80284 0.93771,0.44498 c 1.27257,0.60387 1.33131,0.59228 3.10669,-0.61336 1.7748,-1.20524 2.11667,-1.28614 2.11667,-0.50086 0,0.33421 0.13246,0.50895 0.33073,0.43631 0.1819,-0.0666 1.67557,-0.3974 3.31927,-0.73504 l 2.98854,-0.61389 1.44323,1.42531 c 1.27746,1.26159 1.44323,1.54883 1.44323,2.5008 0,1.07473 0.001,1.0762 1.98438,2.05739 1.21425,0.60083 1.98437,1.14367 1.98437,1.39874 0,0.22926 -0.87306,2.12348 -1.94012,4.20938 l -1.94013,3.792529 0.87186,1.01831 c 0.47952,0.56007 0.87633,1.18133 0.88179,1.38057 0.005,0.19925 -0.42324,1.07535 -0.95267,1.94688 l -0.9626,1.58462 0.0404,7.44583 0.0404,7.44583 -1.43969,1.19062 c -0.79182,0.65485 -1.49088,1.30969 -1.55345,1.45521 -0.0626,0.14552 0.041,2.28865 0.23027,4.76249 0.48947,6.39921 0.48659,6.44665 -0.34095,5.61232 z M 59.191998,114.98421 c -0.25773,-1.20055 -0.5887,-2.40771 -0.7355,-2.68259 -0.21863,-0.4094 -0.11812,-0.6162 0.55583,-1.14365 0.4525,-0.35414 0.82273,-0.7444 0.82273,-0.86724 0,-0.12285 -0.50601,-0.39137 -1.12448,-0.59671 -0.83696,-0.27788 -1.27939,-0.63869 -1.73036,-1.41111 -0.55606,-0.95244 -0.59498,-1.26617 -0.4734,-3.81589 0.0729,-1.52797 0.13715,-3.14135 0.14286,-3.5853 0.009,-0.69061 0.18231,-0.890699 1.20101,-1.385619 l 1.19062,-0.57845 v -2.20993 c 0,-2.1005 0.0328,-2.22485 0.66146,-2.51131 0.4725,-0.21528 0.66229,-0.51085 0.66437,-1.03465 0.009,-2.17675 0.25515,-2.64005 2.15724,-4.05446 1.4833,-1.10298 1.77191,-1.4313 1.52245,-1.73189 -0.1693,-0.20399 -0.45725,-0.37089 -0.63989,-0.37089 -0.8476,0 -0.87998,-0.67241 -0.11836,-2.45773 l 0.76507,-1.79341 -0.53383,-1.38016 c -0.2936,-0.75909 -0.7223,-1.78757 -0.95265,-2.28552 -0.38456,-0.83128 -0.38217,-1.02167 0.0293,-2.32692 0.39228,-1.24443 0.5902,-1.49059 1.58846,-1.97558 1.10841,-0.53851 1.14835,-0.60233 1.42618,-2.27899 0.25815,-1.55791 0.23572,-1.79534 -0.23155,-2.45157 -0.66466,-0.93343 -0.6526,-1.0871 0.14407,-1.83554 0.52833,-0.49633 0.66146,-0.87838 0.66146,-1.8982 0,-1.24823 0.0181,-1.2768 0.81078,-1.2768 0.6857,0 1.38242,0.56127 4.51601,3.63802 2.03787,2.00092 3.81615,3.67771 3.95172,3.72622 0.39634,0.14181 0.29536,0.77747 -0.67955,4.27743 -0.50668,1.81901 -0.92232,3.31952 -0.92364,3.33447 -0.001,0.0149 1.26608,0.10919 2.81645,0.20942 3.20816,0.20741 2.6496,-0.0747 7.86172,3.97117 2.96098,2.29845 4.54385,3.85832 7.67793,7.56635 0.30757,0.36389 1.19145,1.39339 1.96419,2.28779 l 1.40499,1.62617 0.0602,4.10026 0.0602,4.100249 1.27812,1.49606 c 0.70297,0.82283 1.23425,1.53799 1.18063,1.58924 -0.0536,0.0512 -1.40393,-0.13039 -3.00068,-0.40363 -1.59675,-0.27324 -2.98357,-0.41021 -3.08181,-0.30436 -0.0982,0.10584 -0.50628,1.35884 -0.90674,2.78445 l -0.72811,2.59201 -0.82029,-0.17573 c -1.17557,-0.25184 -1.11367,-0.18698 -3.07666,-3.22385 -2.01808,-3.12209 -1.83511,-3.13169 -2.92282,0.15345 -0.61864,1.86844 -0.66771,1.93245 -1.36924,1.78594 -2.31698,-0.48389 -2.12613,-0.53552 -2.97656,0.80533 -0.43656,0.68831 -0.85448,1.34038 -0.92869,1.44904 -0.0742,0.10865 -0.44952,0.2765 -0.83401,0.373 -0.61486,0.15432 -0.71949,0.0824 -0.8687,-0.59694 -0.11411,-0.51953 -0.4474,-0.90535 -1.01808,-1.17852 -0.7547,-0.36125 -1.00469,-0.80667 -2.26261,-4.03128 -0.77779,-1.99384 -1.45064,-3.58684 -1.49522,-3.54002 -0.0446,0.0468 -0.70373,1.65424 -1.46479,3.57203 l -1.38374,3.48688 -2.01583,0.43404 c -1.10871,0.23872 -2.20914,0.48857 -2.44541,0.55522 -0.44874,0.1266 -0.75297,1.34966 -0.75814,3.0479 -0.003,0.92867 -0.0574,0.98111 -1.85732,1.78594 -1.01993,0.45604 -1.95215,0.82917 -2.07161,0.82917 -0.11946,0 -0.42806,-0.98226 -0.68579,-2.18281 z m 41.116272,-8.84153 c -0.941462,-1.11568 -1.872472,-2.25411 -2.068902,-2.52985 -0.26314,-0.36937 -0.35321,-1.53688 -0.34214,-4.435259 l 0.015,-3.93393 -1.89084,-2.20133 c -5.40748,-6.29546 -6.85605,-7.83456 -8.76768,-9.31563 -1.14786,-0.88932 -3.20786,-2.48015 -4.57778,-3.53518 l -2.49077,-1.91823 h -1.70839 c -2.01988,0 -1.97699,0.13292 -1.03642,-3.21239 0.73858,-2.62689 0.69478,-3.12119 -0.34936,-3.94251 -0.38745,-0.30476 -2.45189,-2.26253 -4.58766,-4.35059 -2.33304,-2.28094 -4.1316,-3.83164 -4.50544,-3.88456 -0.34222,-0.0484 -0.62222,-0.21392 -0.62222,-0.36772 0,-0.15381 0.89297,-1.03303 1.98437,-1.95382 1.09141,-0.9208 2.19492,-1.91217 2.45225,-2.20305 0.38944,-0.44023 0.67131,-0.50099 1.68161,-0.36251 0.93627,0.12833 1.6509,0.0112 3.12593,-0.51248 1.16918,-0.41507 2.31489,-0.6459 2.94859,-0.59408 l 1.03641,0.0847 -0.0148,1.19063 c -0.008,0.65484 -0.0985,1.36922 -0.20087,1.5875 -0.1483,0.3163 0.23072,0.49682 1.86688,0.88918 3.97941,0.95428 4.83108,1.60029 4.83108,3.66445 v 0.81502 l 3.2538,-0.14052 c 3.05724,-0.13203 3.36521,-0.19663 5.0981,-1.0693 l 1.84429,-0.92877 2.6857,0.55918 2.685702,0.55918 0.16078,1.19923 c 0.43829,3.26897 0.2166,2.90422 3.86894,6.36569 3.21668,3.04858 3.42144,3.30282 3.42144,4.2483 0,0.66476 0.53812,2.18934 1.5875,4.49756 0.87312,1.92055 1.5875,3.53478 1.5875,3.58719 0,0.0524 -0.15131,0.0953 -0.33624,0.0953 -0.31045,0 -0.76832,1.38499 -3.41136,10.31875 -0.71226,2.40753 -0.74377,2.75069 -0.74697,8.135939 l -0.003,5.6224 h -3.38148 -3.38149 z M 202.09822,90.802611 c -0.10005,-0.10004 -0.1819,-0.55765 -0.1819,-1.01691 0,-0.69834 -0.3628,-1.18913 -2.21663,-2.99861 -1.21915,-1.18998 -2.2861,-2.1636 -2.37101,-2.1636 -0.0849,0 -1.17562,0.23813 -2.42382,0.52917 -1.2482,0.29104 -2.31815,0.52916 -2.37767,0.52916 -0.0595,0 -0.14421,-0.60181 -0.18819,-1.33736 l -0.08,-1.33736 -2.9007,1.99882 c -1.59539,1.09935 -3.122,1.99882 -3.39248,1.99882 -0.44394,0 -0.47362,-0.148 -0.30514,-1.52135 0.18598,-1.51602 0.18475,-1.51967 -0.35165,-1.04102 -0.53017,0.47308 -0.541,0.46433 -0.71736,-0.57956 -0.0985,-0.58294 -0.0278,-2.21622 0.15711,-3.62951 0.36531,-2.79216 0.258,-2.59211 3.19718,-5.96032 l 1.52844,-1.75156 0.42038,-3.6724 c 0.41779,-3.64982 0.63608,-4.52443 2.20427,-8.83178 0.45034,-1.23693 0.81938,-2.27872 0.8201,-2.3151 7.2e-4,-0.0364 -0.48487,-0.0661 -1.07908,-0.0661 -0.59421,0 -1.03808,-0.0893 -0.98638,-0.19844 0.0517,-0.10914 0.74515,-1.53291 1.54102,-3.16393 l 1.44702,-2.96549 1.3253,-0.13657 c 0.72892,-0.0751 3.17077,-0.2403 5.42634,-0.36708 l 4.10104,-0.23051 1.19063,1.27086 c 0.93292,0.99578 1.33379,1.24775 1.85208,1.16411 0.3638,-0.0587 2.14974,-0.23757 3.96875,-0.39748 1.81901,-0.15991 3.74031,-0.35316 4.26955,-0.42943 0.81233,-0.11708 1.11331,-0.006 1.93181,0.7126 0.54334,0.47706 1.06179,0.74675 1.17938,0.61351 0.1154,-0.13078 0.87733,-1.08727 1.69317,-2.12553 1.28928,-1.64079 1.61485,-1.90423 2.48857,-2.01364 0.55288,-0.0692 1.07463,-0.0882 1.15946,-0.0422 0.0848,0.046 0.30602,1.66655 0.49155,3.60114 0.3587,3.74027 0.38936,3.82449 2.32708,6.39304 0.83979,1.11319 1.09035,1.63369 0.88518,1.83885 -0.15739,0.1574 -0.28616,1.19424 -0.28616,2.3041 v 2.01792 l -0.81738,-0.11996 c -0.76986,-0.113 -1.33114,0.39298 -9.65729,8.70581 l -8.83992,8.82577 -0.0138,1.32804 -0.0138,1.32803 -2.92534,2.64584 c -3.12895,2.82998 -3.20215,2.88483 -3.47974,2.60724 z m -52.04024,-6.38748 c 0,-0.64279 -0.1104,-0.74551 -0.85989,-0.80009 -1.64738,-0.11997 -1.78594,-0.24527 -1.78594,-1.61506 v -1.26488 l -2.81929,-0.1725 c -1.5506,-0.0949 -3.38969,-0.1725 -4.08686,-0.1725 -0.97132,0 -1.63688,-0.21644 -2.84763,-0.92604 -1.46491,-0.85856 -1.7413,-0.92605 -3.79277,-0.92605 h -2.21272 l -1.55222,-1.56858 -1.55221,-1.56858 -2.47173,0.89473 c -2.90121,1.0502 -2.4195,1.44504 -4.20434,-3.44611 l -1.25515,-3.43958 -0.34738,-7.01146 c -0.19105,-3.8563 -0.3528,-7.36865 -0.35944,-7.80521 -0.01,-0.62689 0.34833,-1.16433 1.70241,-2.55666 l 1.71448,-1.76291 -0.38791,-0.92842 c -0.21336,-0.51062 -0.44171,-1.36213 -0.50746,-1.89224 -0.11272,-0.9088 -0.0488,-1.00729 1.1194,-1.72518 2.474,-1.52033 2.30131,-1.11966 1.79294,-4.159911 l -0.44798,-2.67911 1.26991,-3.45271 1.26991,-3.45272 14.75052,-0.006 14.75052,-0.006 v 12.832291 12.83229 h -1.17069 -1.1707 l 0.13884,3.9026 c 0.19315,5.42903 -0.55522,11.09516 -2.20846,16.72101 -0.66509,2.26321 -1.39003,4.74001 -1.61099,5.504 -0.43613,1.50797 -0.85717,1.82803 -0.85717,0.65159 z m -34.32966,-0.41283 c -0.24472,-0.33863 -0.28938,-0.43124 -2.1741,-4.50896 -0.99916,-2.16175 -1.33166,-3.19037 -1.33166,-4.11963 v -1.23849 l -3.51861,-3.35648 -3.51861,-3.35649 -0.30581,-2.4227 c -0.16819,-1.33249 -0.42377,-2.49562 -0.56795,-2.58473 -0.14419,-0.0891 -1.81851,-0.49866 -3.72071,-0.9101 l -3.458542,-0.74808 -2.08643,1.08548 c -1.90012,0.98855 -2.26336,1.08548 -4.06787,1.08548 -1.85614,0 -1.99125,-0.0391 -2.13666,-0.61847 -0.3879,-1.54551 -1.96858,-2.70215 -4.59849,-3.36487 -1.27682,-0.32175 -1.38907,-0.41218 -1.38907,-1.11909 0,-2.63446 -2.96125,-3.81483 -6.35,-2.53113 -1.36743,0.518 -2.76776,0.72066 -3.04739,0.44102 -0.0682,-0.0682 0.19619,-0.76979 0.58763,-1.559 0.54664,-1.10211 0.71052,-1.81846 0.70659,-3.08857 l -0.005,-1.65364 h 2.82785 c 2.46022,0 2.91847,-0.0713 3.52498,-0.54837 0.38343,-0.30161 0.69714,-0.73102 0.69714,-0.95425 0,-0.22324 -0.70213,-1.32643 -1.56029,-2.45154 -1.51303,-1.9837 -2.41737,-3.507691 -2.78199,-4.688191 -0.15047,-0.48714 0.0616,-0.71971 1.42126,-1.55896 0.87896,-0.54252 1.5981,-1.05338 1.5981,-1.13523 0,-0.0819 -0.61178,-2.44975 -1.35952,-5.262 l -1.35951,-5.11319 0.47366,-1.05039 c 0.26051,-0.57771 0.56269,-1.050379 0.6715,-1.050379 0.10882,0 1.29246,0.422729 2.63032,0.939419 l 2.43247,0.93941 8.27281,-0.0192 c 4.55005,-0.0106 8.438252,0.0439 8.640442,0.12115 0.27713,0.10583 0.34617,0.59138 0.28046,1.97252 l -0.0872,1.83214 -1.199682,0.40877 c -1.10137,0.37527 -2.19787,1.25847 -2.19787,1.77032 0,0.11584 1.08543,1.71086 2.412072,3.5445 2.14453,2.96409 2.46002,3.29392 2.84428,2.97359 0.2377,-0.19816 1.14057,-0.97796 2.00636,-1.7329 0.8658,-0.75494 1.67424,-1.37261 1.79654,-1.37261 0.12231,0 0.20405,1.2519 0.18164,2.782 l -0.0407,2.78199 1.14452,1.252901 c 0.62948,0.6891 1.23835,1.29259 1.35304,1.3411 0.46463,0.1965 0.13322,0.97014 -1.37897,3.21909 -0.87312,1.29853 -1.5875,2.41535 -1.5875,2.48184 0,0.17604 5.81564,8.69195 6.24955,9.15128 0.32056,0.33934 0.41898,0.31386 0.78029,-0.20198 0.97295,-1.38909 3.50928,-1.98978 4.31292,-1.02146 0.14675,0.17683 0.3369,1.86581 0.42256,3.75331 0.31757,6.99755 0.34613,7.17678 1.76233,11.05989 0.73402,2.01263 1.29457,3.69142 1.24566,3.73064 -0.0489,0.0392 -0.92237,0.55457 -1.94102,1.14523 l -1.85208,1.07393 v 2.18504 c 0,2.15131 -0.0111,2.18804 -0.71663,2.37951 -0.44894,0.12183 -0.79895,0.0806 -0.93699,-0.11044 z m 113.06222,-26.02341 c -1.41126,-1.90771 -1.53705,-2.35366 -1.86929,-6.6271 l -0.19028,-2.4474 h 1.23611 c 0.67986,0 1.48038,-0.13073 1.77893,-0.29051 0.53817,-0.28802 2.03673,-1.76208 6.52838,-6.421621 l 2.32894,-2.416 0.75508,-4.81049 c 0.67387,-4.29315 0.81387,-4.82767 1.3018,-4.97029 0.96019,-0.28063 5.33015,-0.48546 6.3351,-0.29693 1.99577,0.37441 3.62046,2.54449 4.62856,6.18231 l 0.5099,1.84004 -0.75291,0.66066 c -1.01942,0.89453 -1.19101,1.79756 -0.81716,4.30046 0.17427,1.166731 0.34295,2.352131 0.37484,2.634221 0.0407,0.36009 -0.41494,0.84047 -1.52951,1.61249 -0.87313,0.60479 -3.79016,2.66428 -6.48229,4.57667 -4.55195,3.23351 -12.26311,8.25384 -12.65885,8.2415 -0.0954,-0.003 -0.7602,-0.79858 -1.47735,-1.76801 z M 159.05382,43.745011 V 29.85439 h -9.92188 c -5.45703,0 -9.92187,-0.063 -9.92187,-0.1399 0,-0.0769 2.09576,-2.65807 4.65725,-5.735839 6.06116,-7.28281 5.63312,-6.62556 5.69374,-8.74249 l 0.0512,-1.78594 h 2.02695 c 3.67903,0 5.28211,0.88336 7.8042,4.3004 0.65974,0.89385 0.84464,0.98889 1.84992,0.95087 1.41822,-0.0537 1.66914,0.11217 1.88132,1.24323 0.19115,1.01888 0.30106,1.12338 1.82846,1.73845 0.80547,0.32435 1.13437,0.64411 1.36073,1.32292 0.2711,0.81299 0.48972,0.96017 2.38125,1.60311 1.1455,0.38936 2.2896,0.71678 2.54244,0.7276 0.39568,0.0169 0.91604,0.662309 2.18072,2.704629 0.98601,1.5923 1.57261,2.19623 4.20603,4.33031 2.27131,1.84063 3.08018,2.67106 3.54354,3.63802 0.5827,1.21598 0.6351,1.25296 1.77532,1.25296 1.13666,0 1.18497,0.0336 1.48437,1.03291 l 0.30946,1.0329 2.1478,0.31405 c 1.18128,0.17273 2.20766,0.39439 2.28084,0.49258 0.0732,0.0982 1.71063,1.35031 3.63878,2.78251 1.92815,1.432191 3.50573,2.681701 3.50573,2.776701 0,0.095 -0.26818,0.46916 -0.59595,0.83147 -0.32777,0.36232 -0.93843,1.07548 -1.35701,1.5848 -0.41859,0.50932 -1.01361,0.9905 -1.32228,1.06929 -0.4131,0.10544 -1.10105,1.24019 -2.60657,4.29948 l -2.04536,4.15623 h -14.68954 -14.68954 z m -47.99105,10.3227 c -1.10837,-1.67132 -2.01521,-3.16416 -2.01521,-3.31744 0,-0.15327 0.71438,-1.34111 1.5875,-2.63963 0.87313,-1.29852 1.5875,-2.43447 1.5875,-2.52432 0,-0.0899 -0.76057,-1.03543 -1.69016,-2.1013 -1.66911,-1.913791 -1.68845,-1.953911 -1.5523,-3.220221 0.0758,-0.70526 0.16339,-1.31372 0.19457,-1.35214 0.0312,-0.0384 0.37152,0.1778 0.75631,0.48047 l 0.69962,0.55032 -0.16775,-1.60495 -0.16775,-1.60494 0.89758,-0.002 c 0.49368,-0.001 1.6715,-0.0675 2.61738,-0.14763 l 1.7198,-0.14575 1.45691,1.40929 1.45692,1.40929 2.13933,-0.0971 2.13933,-0.0971 0.30636,1.525451 c 0.50081,2.49371 0.4347,2.82315 -0.68655,3.42158 -0.65891,0.35167 -1.19159,0.93208 -1.58807,1.73037 -0.54155,1.09035 -0.57017,1.34419 -0.31016,2.75075 l 0.28645,1.54954 -1.79371,1.80757 c -1.5809,1.59311 -1.81093,1.95333 -1.93881,3.03619 -0.14166,1.19958 -0.16813,1.23 -1.1199,1.28685 -0.53614,0.032 -1.27609,0.25563 -1.64433,0.49691 -0.36824,0.24128 -0.77891,0.43869 -0.9126,0.43869 -0.13368,0 -1.1499,-1.36744 -2.25826,-3.03876 z M 193.54306,40.8451 c -3.81375,-2.87463 -4.08416,-3.02942 -5.58964,-3.19975 -1.54856,-0.1752 -1.58831,-0.2 -1.87978,-1.17282 -0.2788,-0.93057 -0.37874,-1.00457 -1.57003,-1.1626 -1.01184,-0.13423 -1.32318,-0.29794 -1.52093,-0.79974 -0.13676,-0.34703 -1.73694,-1.87916 -3.55595,-3.40473 -2.76561,-2.31946 -3.54563,-3.14601 -4.7625,-5.04658 l -1.45521,-2.272829 -2.38125,-0.74285 c -2.14329,-0.66861 -2.38933,-0.81193 -2.46212,-1.43422 -0.0652,-0.55728 -0.37484,-0.82331 -1.5966,-1.3716 -1.23655,-0.55493 -1.5776,-0.85132 -1.85165,-1.60918 -0.4126,-1.14103 -1.60622,-2.03226 -2.75426,-2.05652 -0.71752,-0.0152 -1.1547,-0.33534 -2.63316,-1.92846 -2.29553,-2.47355 -3.61515,-3.07883 -7.17015,-3.28881 l -2.59294,-0.15315 -0.0529,-8.5329 c -0.034,-5.49022 0.0398,-8.50199 0.20691,-8.44621 0.1429,0.0477 0.77344,0.85139 1.4012,1.78603 2.6487,3.94348003 3.1801,4.57098003 5.01668,5.92404 1.77072,1.30453 3.99112,2.51747 6.94836,3.79567 0.84529,0.36536 1.53465,0.9711 2.37672,2.08845 l 1.1861,1.57382 5.82536,1.11449 c 3.20395,0.61297 6.00926,1.10977 6.23401,1.10399 0.22476,-0.006 0.86659,0.58997 1.42627,1.32389 2.4909,3.26628 4.82945,4.82741 11.26196,7.51809 5.37677,2.24907 5.96518,2.51381 9.29407,4.18157 3.75845,1.882969 4.99343,3.001429 4.99343,4.522319 0,1.38026 -0.80308,2.56112 -2.57969,3.79324 -1.27246,0.88248 -1.38906,1.04973 -1.38906,1.99236 0,0.98114 -0.0598,1.05388 -1.28553,1.56326 l -1.28553,0.53425 -0.14413,2.6155 c -0.11607,2.10649 -0.25558,2.77205 -0.71686,3.419851 -0.315,0.44238 -0.65393,0.80176 -0.75316,0.79861 -0.0992,-0.003 -1.98385,-1.365061 -4.18805,-3.026481 z m -91.78513,-4.95937 c -0.5441,-0.75735 -1.00175,-1.55406 -1.01701,-1.77046 -0.0177,-0.25168 0.42513,-0.52376 1.22904,-0.75505 l 1.25677,-0.36159 v -3.68879 c 0,-2.76507 -0.0828,-3.693279 -0.33073,-3.706729 -0.1819,-0.01 -4.438382,-0.0396 -9.458852,-0.0661 l -9.12813,-0.0482 -2.91042,-1.16119 c -1.60072,-0.63866 -2.95117,-1.19535 -3.00098,-1.23709 -0.0498,-0.0417 -0.006,-0.98192 0.0981,-2.08928 0.17313,-1.84755 0.28513,-2.1379 1.35996,-3.5254 l 1.1713,-1.51204 3.62539,-0.98953 c 1.99397,-0.54424 4.6603,-1.25166 5.92518,-1.57203 l 2.2998,-0.58249 0.55559,-2.13214 c 0.30558,-1.17268 0.6616,-2.37027 0.79116,-2.66131 0.20245,-0.4548 0.23807,-0.4139 0.25346,0.29103 0.0213,0.97309 1.12866,2.59065 2.47775,3.61917 0.98428,0.75039 4.063252,2.30693 4.564072,2.3073 0.15237,1.2e-4 0.73355,-0.4673 1.29151,-1.03871 l 1.01447,-1.03892 -0.42485,-2.46681 c -0.75402,-4.37795 -0.77923,-4.22227 0.7477,-4.61654 0.99093,-0.25586 1.59878,-0.2698 2.4474,-0.0561 1.28849,0.32445 1.345,0.54348 0.84213,3.26377 -0.32963,1.78312 -0.26657,1.86976 2.35536,3.236 1.45982,0.76069 1.51279,0.83639 2.95324,4.21975 0.54067,1.26993 0.66354,1.38295 1.68337,1.54846 0.60508,0.0982 2.87165,0.52353 5.03683,0.94519 2.16518,0.42165 4.07914,0.76664 4.25323,0.76664 0.1741,0 1.02196,-0.54886 1.88414,-1.21969 0.86218,-0.67084 1.77658,-1.36709 2.032,-1.54723 0.38345,-0.27044 0.53196,-1.1277 0.85196,-4.91776 0.21316,-2.52462 0.32868,-4.6491 0.25672,-4.72106 -0.10533,-0.10533 -5.79448,-0.45128 -8.86921,-0.53933 -0.65505,-0.0188 -0.69973,-0.12492 -1.14943,-2.73149 -0.38265,-2.21791 -0.60096,-2.85658997 -1.19833,-3.50572997 -0.40174,-0.43656 -1.13465,-1.38906003 -1.62869,-2.11667003 -0.82885,-1.22071 -0.89718,-1.47623 -0.88444,-3.30729 0.0115,-1.64432 0.14748,-2.2564196 0.79375,-3.5718696 l 0.77994,-1.5875004 3.47538,-0.0736 3.47538,-0.0736 1.5069,3.77778 c 0.82879,2.07778 1.61354,3.88808 1.74389,4.02288 0.71471,0.73918 2.63074,-3.20917 2.63074,-5.4211496 0,-1.06016 0.12777,-1.31964 1.12448,-2.2835804 l 1.12448,-1.08751 6.216,-0.0921 6.21599,-0.0921 0.71403,1.32292 c 0.44507,0.8245904 1.10708,1.5636604 1.75747,1.9620304 l 1.04343,0.63912 0.004,12.1270096 c 0.004,11.99393 -0.002,12.13559 -0.56513,12.90886 -0.64658,0.88852 -6.3281,7.73725 -7.25311,8.74319 -0.33453,0.363799 -1.22964,1.460449 -1.98913,2.437009 l -1.38088,1.77556 -5.20651,0.0104 -5.20651,0.0104 -0.57377,1.52135 c -0.31557,0.83675 -0.87789,2.35479 -1.2496,3.37344 -0.37171,1.01865 -0.74715,1.92733 -0.83431,2.01929 -0.0872,0.092 -1.0454,0.22659 -2.12942,0.29917 l -1.97095,0.13197 -1.50569,-1.43618 -1.50569,-1.43618 -3.13794,0.16597 c -4.39962,0.23271 -4.70414,0.2621 -5.07208,0.4895 -0.2022,0.12496 -0.83437,-0.22238 -1.65453,-0.90906 -0.73002,-0.6112 -1.36766,-1.06644 -1.41699,-1.01163 -0.0493,0.0548 -0.15436,0.72248 -0.23342,1.48371 -0.1126,1.08413 -0.30588,1.52668 -0.89192,2.04216 -0.41149,0.36196 -0.8263,0.66186 -0.92179,0.66646 -0.0955,0.005 -0.61879,-0.61129 -1.16289,-1.36863 z m 19.59276,-19.415489 c -0.87313,-0.19674 -2.70933,-0.56977 -4.08045,-0.82896 l -2.49296,-0.47127 -0.89649,-2.11666 c -0.85966,-2.02971 -0.96377,-2.15498 -2.53413,-3.04921 -1.83563,-1.04529 -1.79059,-0.89833 -1.37663,-4.49142 l 0.19814,-1.71979 -2.35539,-0.59944 -2.35538,-0.59944 -2.57965,0.58066 -2.57965,0.58067 0.17253,1.2094 c 0.0949,0.66517 0.38778,2.40002 0.65086,3.85523 0.29744,1.64529 0.38475,2.74186 0.23088,2.89975 -0.3332,0.34194 -2.922822,-1.06228 -4.004802,-2.17159 l -0.83816,-0.85934 0.59607,-6.4167 c 0.71073,-7.65098 0.78492,-8.13649 1.24328,-8.13649 0.24963,0 0.37815,-0.48181 0.43357,-1.62538 l 0.0788,-1.6253796 1.322912,-0.34732 c 0.72761,-0.19102 1.81524,-0.35257 2.41697,-0.359 1.57931,-0.0169 2.04753,-0.8046304 1.80794,-3.0418604 l -0.17863,-1.66803 0.9245,-0.10793 c 1.19779,-0.13983 1.51151,-0.0209 1.51151,0.57322 0,0.91853 0.31608,1.32251 1.03474,1.32251 0.46812,0 1.02225,0.31851 1.6111,0.92604 0.86698,0.8945 0.96443,0.92604 2.86088,0.92604 2.20512,0 2.09016,-0.24246 1.12905,2.3812504 -0.8081,2.2060096 -0.72961,4.3151296 0.23044,6.1923696 0.42943,0.83969 1.22269,2.06600003 1.7628,2.72513003 0.89391,1.09089997 1.03229,1.48645997 1.54223,4.40868997 l 0.56021,3.21027 4.57914,0.23472 4.57914,0.23471 -0.17567,2.808 c -0.0966,1.54439 -0.2304,3.00487 -0.2973,3.24549 -0.11015,0.39621 -2.70432,2.38359 -3.01488,2.30969 -0.0715,-0.017 -0.84438,-0.1919 -1.7175,-0.38863 z m -26.752942,-19.6805 c 0.0947,-0.50478 0.30161,-1.04056 0.45973,-1.19063 0.20575,-0.19526 0.23403,-0.01 0.0995,0.65319 -0.10342,0.50933 -0.31031,1.04511 -0.45974,1.19063 -0.18526,0.18041 -0.2169,-0.0274 -0.0994,-0.65319 z"
       id="path2" /></g></svg>
